<svg width="73" height="73" fill="none" xmlns="http://www.w3.org/2000/svg"><path d="M51.756 71.93H21.244a4.277 4.277 0 0 1-4.277-4.277V5.347a4.277 4.277 0 0 1 4.277-4.278h30.512a4.277 4.277 0 0 1 4.277 4.278v62.306a4.277 4.277 0 0 1-4.277 4.278z" fill="#EAF6FF"/><path d="M43.47 49.148c0 10.308 8.428 17.113 12.382 19.739.117-.391.181-.805.181-1.234V33.226c-7.197 1.72-12.564 8.206-12.564 15.922z" fill="#D8ECFE"/><path d="M51.756 73H21.244a5.353 5.353 0 0 1-5.346-5.347V5.347A5.353 5.353 0 0 1 21.244 0h30.512a5.353 5.353 0 0 1 5.346 5.347v62.306A5.353 5.353 0 0 1 51.757 73zM21.244 2.139a3.212 3.212 0 0 0-3.208 3.208v62.306a3.212 3.212 0 0 0 3.208 3.208h30.512a3.212 3.212 0 0 0 3.208-3.208V5.347a3.212 3.212 0 0 0-3.208-3.208H21.244z" fill="#9E9797"/><path d="M21.263 41.334c-4.686 0-8.925-2.763-10.793-7.034l-2.229-5.097a12.873 12.873 0 0 1-.39-9.316l1.279-3.752c1.184-3.472 4.46-5.808 8.148-5.808h7.97c3.687 0 6.964 2.336 8.148 5.808l1.28 3.752c1.038 3.046.899 6.367-.391 9.316l-2.23 5.097c-1.867 4.271-6.107 7.034-10.792 7.034z" fill="#FED2A4"/><path d="m34.676 19.887-1.28-3.752a8.588 8.588 0 0 0-6.574-5.662 8.53 8.53 0 0 1 2.297 3.523l1.28 3.752c1.038 3.046.899 6.367-.391 9.316l-2.23 5.097c-1.867 4.272-6.106 7.035-10.792 7.035-1.04 0-2.06-.137-3.035-.396a11.804 11.804 0 0 0 7.312 2.534c4.686 0 8.925-2.763 10.793-7.034l2.23-5.097c1.289-2.95 1.428-6.27.39-9.316z" fill="#FFBD54"/><path d="M41.456 23.553c0 2.096-2.626 3.07-3.998 1.477a45.35 45.35 0 0 1-6.873-10.724c-1.232-2.696 1.92-5.272 4.338-3.54l5.489 3.93a2.494 2.494 0 0 1 1.044 2.027v6.83z" fill="#FFBD54"/><path d="m40.413 14.696-2.444-1.75c.154.327.237.686.237 1.057v6.83c0 1.384-1.144 2.278-2.317 2.268a45.35 45.35 0 0 0 1.57 1.929c1.371 1.593 3.998.62 3.998-1.477v-6.83c0-.803-.389-1.558-1.044-2.027z" fill="#C38325"/><path d="M1.07 23.553c0 2.096 2.626 3.07 3.998 1.477a45.357 45.357 0 0 0 6.872-10.724c1.233-2.696-1.92-5.272-4.337-3.54l-5.49 3.93a2.494 2.494 0 0 0-1.044 2.027v6.83z" fill="#FFBD54"/><path d="M18.97 27.65h3.697a.969.969 0 0 1 .838 1.464l-1.849 3.096a.978.978 0 0 1-1.676 0l-1.849-3.096a.969.969 0 0 1 .838-1.463zM40.87 6.452h-8.74a4.277 4.277 0 0 1-4.277-4.278V1.07h17.293v1.105a4.277 4.277 0 0 1-4.277 4.278z" fill="#9E9797"/><path d="M71.93 49.148c0 9.442-12.092 17.166-12.092 17.166s-12.092-6.41-12.092-17.166c0-6.679 5.414-12.092 12.092-12.092 6.679 0 12.092 5.414 12.092 12.092z" fill="#78C0DE"/><path d="M62.993 37.474a12.068 12.068 0 0 1 4.66 9.535c0 8.223-9.168 15.14-11.537 16.791 2.077 1.64 3.723 2.514 3.723 2.514S71.93 58.59 71.93 49.148c0-5.587-3.79-10.286-8.938-11.674z" fill="#61ADCD"/><path d="M59.838 52.113a4.154 4.154 0 1 0 0-8.308 4.154 4.154 0 0 0 0 8.308z" fill="#fff"/><path d="M42.124 47.185a1.07 1.07 0 0 0 1.507-.125l.01-.011c.38-.45.32-1.12-.131-1.502a1.076 1.076 0 0 0-1.512.131 1.07 1.07 0 0 0 .126 1.507zm.404-11.709a1.07 1.07 0 0 0-.187-1.5l-.011-.01a1.069 1.069 0 1 0-1.313 1.689l.01.008a1.07 1.07 0 0 0 1.501-.187zm.444 29.438a1.07 1.07 0 1 0 .014-2.139h-.014a1.07 1.07 0 1 0 0 2.139zm4.292 0a1.07 1.07 0 1 0 .014-2.139h-.014a1.07 1.07 0 1 0 0 2.139zM24.64 21.428a4.029 4.029 0 0 1 2.99 0 1.07 1.07 0 0 0 .79-1.987 6.165 6.165 0 0 0-4.572 0 1.07 1.07 0 1 0 .792 1.987zm-6.756 0a1.071 1.071 0 0 0 1.389-.598 1.07 1.07 0 0 0-.598-1.389 6.115 6.115 0 0 0-2.337-.438 6.16 6.16 0 0 0-2.235.438 1.07 1.07 0 1 0 .79 1.987 4.03 4.03 0 0 1 2.99 0zm8.026 12.886a1.07 1.07 0 1 0-2.139 0c0 .514-.423.931-.942.931a.938.938 0 0 1-.942-.93v-.861c.276-.17.512-.405.686-.696l1.849-3.096c.38-.636.389-1.402.023-2.046a2.048 2.048 0 0 0-1.78-1.035H18.97c-.735 0-1.416.396-1.779 1.035a2.011 2.011 0 0 0 .023 2.046l1.849 3.096c.174.29.41.526.687.696v.86c0 .514-.423.931-.942.931a.937.937 0 0 1-.943-.93 1.07 1.07 0 1 0-2.139 0 3.079 3.079 0 0 0 5.093 2.321 3.079 3.079 0 0 0 5.093-2.322zm-6.77-5.594h3.354l-1.677 2.807-1.677-2.807zm13.895 6.008 2.228-5.096a13.942 13.942 0 0 0 1.103-4.236c.094.11.187.222.281.331a3.309 3.309 0 0 0 2.517 1.164c.393 0 .793-.07 1.182-.215a3.307 3.307 0 0 0 2.179-3.123v-6.83a3.571 3.571 0 0 0-1.491-2.897l-5.49-3.93a3.937 3.937 0 0 0-4.85.163 4.086 4.086 0 0 0-.535.534 9.765 9.765 0 0 0-4.913-1.335h-7.21V5.347a3.212 3.212 0 0 1 3.207-3.208h5.54v.035a5.353 5.353 0 0 0 5.347 5.347h8.738a5.353 5.353 0 0 0 5.347-5.347V2.14h5.54a3.212 3.212 0 0 1 3.208 3.208V33.39a1.07 1.07 0 1 0 2.139 0V5.347A5.353 5.353 0 0 0 51.755 0H21.244a5.353 5.353 0 0 0-5.346 5.347v4.011c-1.245.18-2.45.6-3.533 1.234-.159-.19-.336-.37-.535-.534a3.937 3.937 0 0 0-4.85-.162l-5.489 3.93A3.571 3.571 0 0 0 0 16.723v6.83c0 1.406.855 2.632 2.18 3.123a3.31 3.31 0 0 0 3.699-.949l.28-.331A13.95 13.95 0 0 0 7.26 29.63L9.49 34.73c2.04 4.662 6.661 7.675 11.773 7.675 5.113 0 9.734-3.013 11.773-7.676zm-4.113-32.59h15.154v.036a3.212 3.212 0 0 1-3.208 3.208h-8.738a3.212 3.212 0 0 1-3.208-3.208V2.14zm3.133 9.571c.303-.25.717-.438 1.176-.438.341 0 .707.104 1.069.363l5.489 3.931c.374.268.597.7.597 1.158v6.83c0 .767-.6 1.05-.785 1.118-.185.07-.828.248-1.333-.339a44.324 44.324 0 0 1-6.71-10.47c-.427-.934-.024-1.724.497-2.153zM4.257 24.332c-.505.587-1.149.408-1.333.34-.185-.069-.785-.352-.785-1.12v-6.83c0-.456.223-.889.597-1.157l5.49-3.93c.361-.26.727-.364 1.068-.364.459 0 .873.188 1.176.438.52.429.924 1.22.498 2.152a44.329 44.329 0 0 1-6.71 10.471zm7.192 9.54-2.228-5.098a11.79 11.79 0 0 1-.904-6.136 46.243 46.243 0 0 0 4.596-7.888 3.955 3.955 0 0 0 .33-2.188 7.609 7.609 0 0 1 4.035-1.166h7.97c1.425 0 2.835.411 4.036 1.167a3.956 3.956 0 0 0 .33 2.187 46.464 46.464 0 0 0 4.596 7.89c.25 2.088-.06 4.203-.906 6.134l-2.228 5.097c-1.698 3.884-5.55 6.394-9.813 6.394-4.262 0-8.114-2.51-9.814-6.393zm33.048 5.395a1.07 1.07 0 0 0 .676-1.353l-.013-.037c-.2-.556-.814-.85-1.37-.65-.555.2-.846.808-.646 1.364.202.562.805.858 1.353.676zM29.05 63.55a1.07 1.07 0 0 0 .864 1.241 1.08 1.08 0 0 0 1.26-.894 1.07 1.07 0 0 0-.887-1.212 1.07 1.07 0 0 0-1.237.865zm16.522-20.916.004-.03a1.07 1.07 0 0 0-2.124-.251 1.07 1.07 0 0 0 2.12.28zM25.345 54.349a1.065 1.065 0 0 0-.665-1.354 1.074 1.074 0 0 0-.703 2.03 1.074 1.074 0 0 0 1.362-.658l.006-.018zm-1.46 2.844c-.572.147-.916.73-.77 1.301.12.49.557.818 1.04.818.68 0 1.205-.66 1.04-1.322l-.008-.028a1.07 1.07 0 0 0-1.302-.77zm35.954-21.207c-7.258 0-13.162 5.905-13.162 13.162 0 4.693 2.202 9.32 6.369 13.382.65.633 1.298 1.205 1.918 1.716v3.407a3.212 3.212 0 0 1-3.208 3.208H21.244a3.212 3.212 0 0 1-3.208-3.208V44.898a1.07 1.07 0 1 0-2.139 0v22.755A5.353 5.353 0 0 0 21.245 73h30.512a5.353 5.353 0 0 0 5.346-5.347v-1.791c1.28.885 2.168 1.36 2.236 1.396a1.07 1.07 0 0 0 1.076-.043C60.928 66.886 73 59.062 73 49.148c0-7.257-5.904-13.162-13.161-13.162zm-.046 29.066c-2.291-1.382-10.977-7.2-10.977-15.904 0-6.078 4.944-11.023 11.023-11.023 6.078 0 11.022 4.945 11.022 11.023 0 7.65-8.796 14.311-11.068 15.904zm-32.34-13.647a1.07 1.07 0 1 0-1.312-1.688l-.012.009a1.07 1.07 0 1 0 1.313 1.688l.012-.009zm32.386-8.67a5.23 5.23 0 0 0-5.224 5.224 5.23 5.23 0 0 0 5.224 5.223 5.23 5.23 0 0 0 5.223-5.223 5.23 5.23 0 0 0-5.223-5.224zm0 8.309a3.089 3.089 0 0 1-3.085-3.085 3.088 3.088 0 0 1 3.085-3.085c1.7 0 3.084 1.384 3.084 3.085a3.088 3.088 0 0 1-3.084 3.085zM27.09 62.619a1.07 1.07 0 0 0-.03-1.512l-.027-.026a1.073 1.073 0 0 0-1.514.06c-.4.435-.375 1.108.06 1.508.434.4 1.102.396 1.511-.03zm4.711-13.688a1.07 1.07 0 0 0-1.153-.973 1.07 1.07 0 0 0 .138 2.135 1.071 1.071 0 0 0 1.015-1.162zm8.505-.56a1.074 1.074 0 0 0-2.054.628c.173.572.78.882 1.333.714l.018-.006c.564-.174.877-.77.703-1.335zm-1.612 16.543a1.07 1.07 0 1 0 0-2.139h-.014c-.59 0-1.07.479-1.07 1.07 0 .594.488 1.069 1.084 1.069zm.11-31.557a1.07 1.07 0 0 0-.99-1.129 1.07 1.07 0 1 0-.14 2.134 1.07 1.07 0 0 0 1.13-1.005zM34.39 62.775c-.59 0-1.062.479-1.062 1.07 0 .59.486 1.069 1.076 1.069a1.07 1.07 0 1 0 0-2.139h-.014zM36.1 49c0-.59-.479-1.07-1.07-1.07h-.014c-.59 0-1.07.48-1.07 1.07 0 .594.489 1.07 1.084 1.07.591 0 1.07-.48 1.07-1.07z" fill="#000"/></svg>