<svg width="46" height="73" fill="none" xmlns="http://www.w3.org/2000/svg"><path d="M37.858 71.43H7.347a3.777 3.777 0 0 1-3.778-3.777V5.347a3.777 3.777 0 0 1 3.778-3.778h30.511a3.777 3.777 0 0 1 3.778 3.778v62.306a3.777 3.777 0 0 1-3.778 3.778z" fill="#EAF6FF" stroke="#000"/><path d="M37.858 72.5H7.347A4.853 4.853 0 0 1 2.5 67.653V5.347A4.853 4.853 0 0 1 7.347.5h30.511a4.853 4.853 0 0 1 4.847 4.847v62.306a4.853 4.853 0 0 1-4.847 4.847zM7.347 1.639a3.712 3.712 0 0 0-3.708 3.708v62.306a3.712 3.712 0 0 0 3.708 3.708h30.511a3.712 3.712 0 0 0 3.708-3.708V5.347a3.712 3.712 0 0 0-3.708-3.708H7.347z" fill="#9E9797" stroke="#000"/><path d="M26.972 5.952h-8.739a3.777 3.777 0 0 1-3.777-3.778V1.57h16.293v.605a3.777 3.777 0 0 1-3.777 3.778z" fill="#9E9797" stroke="#000"/><path d="M31.636 28.963c7.533.015 13.687 6.18 13.69 13.713a13.664 13.664 0 0 1-3.22 8.838 3.336 3.336 0 0 0-.442 3.62l1.493 3.04a.307.307 0 0 1-.384.423l-6.349-2.376a3.328 3.328 0 0 0-1.878-.135 13.77 13.77 0 0 1-3.207.313c-7.45-.142-13.462-6.286-13.451-13.737.01-7.577 6.164-13.715 13.748-13.7z" fill="#FFBD54"/><path d="M41.663 55.134a3.336 3.336 0 0 1 .442-3.62 13.664 13.664 0 0 0 3.221-8.838c-.003-7.533-6.157-13.698-13.69-13.713a13.854 13.854 0 0 0-1.494.078c6.866.735 12.256 6.586 12.26 13.635a13.663 13.663 0 0 1-3.222 8.838 3.336 3.336 0 0 0-.441 3.62l1.175 2.393 2.86 1.07a.307.307 0 0 0 .383-.423l-1.493-3.04z" fill="#FFD064"/><path d="M14.364 22.674C6.832 22.689.678 28.854.675 36.387a13.664 13.664 0 0 0 3.22 8.838 3.336 3.336 0 0 1 .443 3.62l-1.494 3.04c-.122.25.123.52.384.424l6.35-2.377a3.33 3.33 0 0 1 1.877-.135 13.77 13.77 0 0 0 3.207.313c7.45-.142 13.463-6.286 13.452-13.737-.011-7.577-6.165-13.715-13.748-13.7z" fill="#78C0DE"/><path d="M14.365 22.674c-.52 0-1.034.032-1.54.09 6.829.782 12.133 6.574 12.144 13.609.01 7.01-5.312 12.862-12.146 13.65.602.068 1.216.1 1.839.087 7.45-.143 13.462-6.286 13.451-13.737-.01-7.577-6.165-13.715-13.748-13.7z" fill="#80B4FB"/><path d="m13.845 33.673-3.59-3.588a.41.41 0 0 0-.58 0l-.807.807a3.085 3.085 0 0 0 0 4.363l6.663 6.664a3.085 3.085 0 0 0 4.364 0l.807-.807a.41.41 0 0 0 0-.581l-3.589-3.59a.41.41 0 0 0-.581 0l-.723.724a.885.885 0 0 1-1.252 0l-1.436-1.436a.885.885 0 0 1 0-1.251l.723-.724a.41.41 0 0 0 0-.58z" fill="#26457D"/><path d="M28.678 42.157v1.05a.674.674 0 1 0 1.348 0v-1.05a.674.674 0 1 0-1.348 0zM33.187 42.157v1.05a.674.674 0 1 0 1.348 0v-1.05a.674.674 0 1 0-1.348 0zM37.696 42.157v1.05a.674.674 0 1 0 1.348 0v-1.05a.674.674 0 1 0-1.348 0z" fill="#000"/><path d="M31.637 28.289h-.031c-1.647 0-3.256.276-4.793.82a14.482 14.482 0 0 0-2.26-2.91A14.298 14.298 0 0 0 14.394 22h-.03c-1.61.003-3.194.275-4.708.807a.674.674 0 1 0 .446 1.271 12.918 12.918 0 0 1 4.265-.73h.027a12.96 12.96 0 0 1 9.21 3.805 12.969 12.969 0 0 1 3.836 9.22c.005 3.427-1.322 6.672-3.736 9.138a12.963 12.963 0 0 1-9.054 3.925c-1.029.021-2.055-.08-3.051-.298a3.993 3.993 0 0 0-2.258.163l-5.485 2.053 1.086-2.212a4.01 4.01 0 0 0-.53-4.35 13.054 13.054 0 0 1-3.063-8.405c.002-4.573 2.466-8.874 6.43-11.225a.674.674 0 0 0-.687-1.159 14.567 14.567 0 0 0-5.131 5.161A14.33 14.33 0 0 0 0 36.387a14.403 14.403 0 0 0 3.38 9.272c.68.807.817 1.941.352 2.889l-1.493 3.04a.976.976 0 0 0 .153 1.091.977.977 0 0 0 1.071.26l6.35-2.376a2.65 2.65 0 0 1 1.497-.108c1.099.24 2.23.35 3.364.329a14.307 14.307 0 0 0 4.528-.824c2.54 4.307 7.13 7.017 12.123 7.113 1.135.021 2.266-.09 3.365-.33a2.65 2.65 0 0 1 1.498.109l6.349 2.377c.83.31 1.616-.554 1.224-1.352l-1.493-3.04a2.672 2.672 0 0 1 .308-2.831.674.674 0 1 0-1.054-.84 4.026 4.026 0 0 0-.463 4.265l1.086 2.212-5.485-2.053a3.995 3.995 0 0 0-2.258-.163c-.996.218-2.022.319-3.05.298-4.46-.085-8.567-2.474-10.889-6.283a14.456 14.456 0 0 0 4.203-2.989c2.663-2.72 4.126-6.3 4.12-10.081a14.345 14.345 0 0 0-1.338-6.057 12.99 12.99 0 0 1 4.158-.678h.028c7.175.014 13.015 5.864 13.018 13.04a13.05 13.05 0 0 1-1.647 6.354.674.674 0 0 0 1.177.657A14.401 14.401 0 0 0 46 42.676c-.004-7.917-6.447-14.37-14.363-14.387z" fill="#000"/><path d="m8.392 35.731 3.645 3.646a.674.674 0 0 0 .953-.953L9.345 34.78c-.94-.94-.94-2.47 0-3.41l.62-.622 3.217 3.217-.537.537a1.56 1.56 0 0 0 0 2.205l1.436 1.436a1.56 1.56 0 0 0 2.205 0l.537-.538 3.217 3.217-.621.621c-.94.94-2.47.94-3.41 0l-1.111-1.11a.674.674 0 0 0-.953.953l1.11 1.11a3.748 3.748 0 0 0 2.659 1.1c.962 0 1.925-.367 2.658-1.1l.807-.807c.204-.205.317-.477.317-.767 0-.29-.113-.562-.317-.767l-3.59-3.589a1.086 1.086 0 0 0-1.533 0l-.723.724a.211.211 0 0 1-.299 0l-1.436-1.436a.211.211 0 0 1 0-.299l.723-.723a1.086 1.086 0 0 0 0-1.534l-3.588-3.588a1.077 1.077 0 0 0-.767-.318c-.29 0-.562.113-.767.317l-.807.807a3.763 3.763 0 0 0 0 5.316z" fill="#000"/></svg>