<svg width="87" height="87" fill="none" xmlns="http://www.w3.org/2000/svg"><path d="M73.54 86.898c3.657-.246 8.572-1.177 10.384-2.99 1.813-1.812 2.743-6.727 2.99-10.384.275-4.096.025-10.214-2.728-16.101a2.549 2.549 0 0 0-2.513-1.46 28.042 28.042 0 0 0-15.689 6.401l-7.232-7.229a38.15 38.15 0 0 1 14.89-8.041 2.549 2.549 0 1 0-1.362-4.913 43.258 43.258 0 0 0-17.14 9.344l-7.221-7.22a53.059 53.059 0 0 1 14.03-9.204 2.549 2.549 0 1 0-2.087-4.65A58.147 58.147 0 0 0 44.31 40.697l-7.216-7.213a68.843 68.843 0 0 1 9.955-7.689 2.549 2.549 0 1 0-2.732-4.304 73.972 73.972 0 0 0-10.83 8.387l-5.834-5.831a17.706 17.706 0 0 0 3.551-10.686c0-4.765-1.856-9.246-5.226-12.615a2.549 2.549 0 0 0-4.301 1.302A24.954 24.954 0 0 1 2.049 21.677a2.549 2.549 0 0 0-1.302 4.301 17.724 17.724 0 0 0 12.616 5.226c3.905 0 7.618-1.248 10.686-3.552l5.834 5.832a73.962 73.962 0 0 0-8.376 10.818 2.547 2.547 0 0 0 .786 3.518 2.549 2.549 0 0 0 3.518-.787 68.86 68.86 0 0 1 7.679-9.943l7.215 7.213a58.146 58.146 0 0 0-10.24 15.543 2.549 2.549 0 0 0 4.65 2.087 53.054 53.054 0 0 1 9.199-14.023l7.221 7.219a43.26 43.26 0 0 0-9.339 17.135 2.55 2.55 0 0 0 4.912 1.362 38.148 38.148 0 0 1 8.04-14.886l7.231 7.229a28.041 28.041 0 0 0-6.402 15.689 2.55 2.55 0 0 0 1.46 2.512c5.889 2.754 12.007 3.003 16.102 2.728zm-2.231-12a2.549 2.549 0 1 1 3.604-3.605 2.549 2.549 0 0 1-3.604 3.604z" fill="#F3F3F3" opacity=".3"/></svg>