<svg width="669" height="236" fill="none" xmlns="http://www.w3.org/2000/svg"><g opacity=".25" fill="#000"><g opacity=".2"><path d="M80.236 21.603a5.852 5.852 0 0 0 4.491-3.41 5.851 5.851 0 0 0-.447-5.62l-2.656-4.057a3.695 3.695 0 0 0-1.828-1.454 3.695 3.695 0 0 0-2.334-.078 3.696 3.696 0 0 0-1.92 1.33 3.694 3.694 0 0 0-.75 2.213v.054a7.312 7.312 0 0 1-2.4 5.305 3.7 3.7 0 0 0-1.152 2.032c-.157.789-.058 1.59.287 2.318a3.694 3.694 0 0 0 1.611 1.69c.71.379 1.507.516 2.302.397l4.796-.72zM85.065 10.83c-.045.832.286 1.629.932 2.242.615.583 1.448.931 2.346.98.898.047 1.764-.21 2.438-.724.708-.54 1.122-1.296 1.166-2.128.09-1.673-1.38-3.117-3.278-3.22-1.512-.081-2.845.714-3.37 1.886a2.7 2.7 0 0 0-.234.963zM85.908 16.771c-.8 1.784.204 3.977 2.237 4.887 2.033.91 4.337.2 5.136-1.584.8-1.784-.205-3.976-2.238-4.887-2.033-.91-4.336-.2-5.135 1.584zM82.501 21.952a2.887 2.887 0 0 0-.507.773c-.583 1.302-.204 2.994 1.035 4.13.713.653 1.607 1.032 2.517 1.065.953.035 1.81-.308 2.412-.965.602-.657.87-1.54.752-2.486-.112-.904-.567-1.762-1.28-2.416-1.504-1.379-3.715-1.424-4.929-.1zM79.88 28.959c1.46-.824 1.89-2.84.959-4.496-.933-1.655-2.88-2.334-4.34-1.512-.532.299-.927.757-1.17 1.3-.423.944-.381 2.142.211 3.196.933 1.655 2.88 2.333 4.34 1.512z"/></g><g opacity=".3"><path d="M174.018 71.716a5.85 5.85 0 0 0 4.491-3.41 5.848 5.848 0 0 0-.447-5.62l-2.656-4.057a3.692 3.692 0 0 0-1.828-1.454 3.694 3.694 0 0 0-2.334-.078 3.694 3.694 0 0 0-1.92 1.33 3.692 3.692 0 0 0-.749 2.214v.054a7.313 7.313 0 0 1-2.4 5.304 3.697 3.697 0 0 0-1.152 2.032c-.158.789-.059 1.59.286 2.318a3.693 3.693 0 0 0 1.612 1.69c.71.38 1.506.516 2.302.397l4.795-.72zM178.848 60.943c-.045.833.286 1.629.932 2.242.615.583 1.448.931 2.347.98.898.047 1.763-.21 2.437-.723.708-.54 1.122-1.297 1.167-2.128.09-1.673-1.38-3.118-3.279-3.221-1.512-.08-2.845.714-3.37 1.886-.134.3-.215.624-.234.964zM179.691 66.885c-.799 1.784.205 3.976 2.237 4.886 2.033.91 4.338.2 5.137-1.584.799-1.784-.205-3.976-2.239-4.887-2.032-.91-4.336-.2-5.135 1.585zM176.284 72.066a2.895 2.895 0 0 0-.508.773c-.583 1.3-.204 2.993 1.035 4.129.713.654 1.607 1.032 2.517 1.065.953.035 1.809-.308 2.412-.965.602-.657.869-1.54.752-2.486-.112-.904-.567-1.762-1.28-2.415-1.504-1.38-3.715-1.425-4.928-.101zM173.663 79.072c1.46-.823 1.89-2.84.959-4.496-.933-1.655-2.879-2.333-4.339-1.512-.533.3-.928.758-1.171 1.3-.423.944-.381 2.142.211 3.196.933 1.655 2.879 2.333 4.34 1.512z"/></g><g opacity=".6"><path d="M498.513 51.458a5.853 5.853 0 0 0 .588-5.609 5.85 5.85 0 0 0-4.404-3.52l-4.776-.84a3.696 3.696 0 0 0-2.311.337c-.719.36-1.291.93-1.654 1.65a3.7 3.7 0 0 0-.344 2.31 3.693 3.693 0 0 0 1.101 2.06l.039.037a7.312 7.312 0 0 1 2.225 5.38 3.72 3.72 0 0 0 .693 2.23 3.696 3.696 0 0 0 1.886 1.379c.766.246 1.574.24 2.336-.019a3.695 3.695 0 0 0 1.864-1.407l2.757-3.988zM493.962 40.563c.576.603 1.383.906 2.273.855.846-.049 1.67-.418 2.32-1.04.649-.622 1.054-1.43 1.141-2.273.09-.885-.177-1.705-.753-2.306-1.158-1.211-3.218-1.128-4.593.186-1.093 1.047-1.426 2.563-.93 3.748.126.303.307.584.542.83zM498.872 44.014c.754 1.804 3.039 2.573 5.094 1.714 2.055-.86 3.114-3.026 2.36-4.83-.754-1.803-3.039-2.571-5.095-1.712-2.055.859-3.113 3.025-2.359 4.828zM500.319 50.045c.024.316.098.617.216.9.55 1.315 2.043 2.196 3.719 2.07.964-.072 1.852-.465 2.499-1.106.678-.67 1.014-1.53.947-2.419-.066-.889-.528-1.688-1.298-2.25-.736-.537-1.672-.792-2.637-.72-2.035.154-3.581 1.735-3.446 3.525zM503.633 56.75c.399-1.628-.777-3.322-2.622-3.776-1.845-.453-3.671.503-4.072 2.129a2.773 2.773 0 0 0 .146 1.743c.4.955 1.302 1.744 2.476 2.034 1.845.452 3.671-.503 4.072-2.13z"/></g><g opacity=".2"><path d="M13.793 20.83a6.455 6.455 0 0 0 5.33-3.206 6.455 6.455 0 0 0 .176-6.218l-2.433-4.764a4.075 4.075 0 0 0-1.832-1.81 4.077 4.077 0 0 0-2.551-.363 4.077 4.077 0 0 0-2.264 1.232 4.075 4.075 0 0 0-1.083 2.338l-.007.059a8.066 8.066 0 0 1-3.26 5.533 4.08 4.08 0 0 0-1.505 2.092 4.076 4.076 0 0 0 .04 2.576 4.074 4.074 0 0 0 1.567 2.045c.734.5 1.59.744 2.478.708l5.344-.221zM20.367 9.588c-.148.908.12 1.82.756 2.569.605.713 1.478 1.193 2.457 1.352.98.16 1.96-.02 2.76-.504.84-.508 1.384-1.288 1.531-2.195.297-1.824-1.144-3.583-3.214-3.921-1.649-.268-3.205.446-3.92 1.67-.182.312-.31.658-.37 1.029zM20.59 16.204c-1.088 1.862-.247 4.385 1.874 5.624 2.122 1.24 4.733.733 5.82-1.129 1.088-1.861.247-4.384-1.875-5.624-2.121-1.239-4.732-.732-5.819 1.13zM16.237 21.482c-.262.231-.478.497-.648.788-.794 1.358-.578 3.259.646 4.65.704.802 1.64 1.323 2.634 1.468 1.041.15 2.02-.123 2.76-.773.738-.65 1.135-1.586 1.119-2.638-.016-1.004-.413-1.999-1.118-2.8-1.486-1.69-3.905-2.002-5.393-.695zM12.533 28.856c1.7-.73 2.41-2.89 1.585-4.817-.827-1.926-2.882-2.9-4.58-2.173A3.057 3.057 0 0 0 8.1 23.153c-.576.985-.672 2.304-.147 3.53.827 1.926 2.88 2.9 4.58 2.173z"/></g><g opacity=".4"><path d="M283.339 88.282a5.741 5.741 0 0 0 .635-5.498 5.741 5.741 0 0 0-4.285-3.5l-4.678-.875a3.624 3.624 0 0 0-2.271.308c-.71.346-1.277.9-1.641 1.6a3.63 3.63 0 0 0-.362 2.265c.127.78.493 1.482 1.059 2.033l.038.037a7.17 7.17 0 0 1 2.128 5.303 3.646 3.646 0 0 0 2.494 3.568c.749.25 1.541.252 2.292.006a3.624 3.624 0 0 0 1.844-1.362l2.747-3.885zM278.989 77.543c.559.598 1.348.904 2.221.863.831-.04 1.643-.393 2.287-.997.644-.604 1.05-1.391 1.144-2.218.098-.868-.156-1.675-.715-2.272-1.124-1.2-3.146-1.14-4.509.135-1.084 1.017-1.426 2.501-.952 3.67.121.298.295.575.524.82zM283.771 80.981c.721 1.778 2.956 2.556 4.981 1.734 2.026-.821 3.088-2.936 2.366-4.714-.721-1.778-2.956-2.555-4.982-1.734-2.025.822-3.086 2.937-2.365 4.714zM285.126 86.914c.02.31.09.607.203.885.526 1.296 1.982 2.177 3.628 2.07.947-.06 1.822-.436 2.464-1.059.672-.651 1.011-1.49.955-2.363-.057-.874-.501-1.663-1.251-2.222-.717-.534-1.633-.795-2.58-.734-1.999.13-3.532 1.665-3.419 3.423zM288.308 93.53v-.002c.409-1.593-.728-3.267-2.533-3.732-1.806-.464-3.609.455-4.019 2.047a2.725 2.725 0 0 0 .126 1.712c.381.94 1.259 1.725 2.408 2.021 1.805.463 3.608-.455 4.018-2.047z"/></g><path d="M650.804 223.158a5.743 5.743 0 0 0 5.377 1.308 5.744 5.744 0 0 0 4.003-3.821l1.443-4.535a3.62 3.62 0 0 0-.025-2.291 3.627 3.627 0 0 0-1.387-1.826 3.625 3.625 0 0 0-2.201-.638 3.623 3.623 0 0 0-2.149.8l-.041.034a7.178 7.178 0 0 1-5.525 1.458 3.634 3.634 0 0 0-2.26.38 3.633 3.633 0 0 0-1.588 1.654 3.632 3.632 0 0 0-.289 2.274 3.633 3.633 0 0 0 1.124 1.998l3.518 3.205zM661.997 220.164c-.662.481-1.063 1.226-1.13 2.098-.063.829.188 1.679.707 2.393.52.713 1.252 1.213 2.06 1.408.85.204 1.682.051 2.343-.43 1.33-.967 1.519-2.981.422-4.491-.875-1.201-2.306-1.723-3.524-1.397a2.64 2.64 0 0 0-.878.419zM657.997 224.486c-1.854.496-2.901 2.618-2.335 4.729.566 2.112 2.534 3.426 4.387 2.93 1.853-.497 2.9-2.619 2.334-4.731-.566-2.111-2.534-3.425-4.386-2.928zM651.941 225.1a2.863 2.863 0 0 0-.903.092c-1.351.362-2.405 1.699-2.502 3.345-.056.948.209 1.863.748 2.577.563.747 1.354 1.186 2.228 1.238.873.052 1.711-.292 2.358-.967.619-.645.991-1.523 1.047-2.47.118-1.999-1.217-3.711-2.976-3.815zM644.984 227.444h.001c1.531.602 3.332-.319 4.016-2.054.683-1.735-.006-3.637-1.536-4.24a2.724 2.724 0 0 0-1.714-.087c-.981.263-1.867 1.037-2.303 2.141-.682 1.735.007 3.637 1.536 4.24z"/><g opacity=".5"><path d="M361.306 91.234a6.454 6.454 0 0 0-2.158-5.834 6.454 6.454 0 0 0-6.076-1.33l-5.134 1.501a4.076 4.076 0 0 0-2.12 1.463 4.079 4.079 0 0 0-.831 2.44 4.08 4.08 0 0 0 .788 2.453 4.075 4.075 0 0 0 2.096 1.5l.057.017a8.066 8.066 0 0 1 4.829 4.234 4.07 4.07 0 0 0 1.774 1.868c.783.42 1.661.572 2.539.442a4.072 4.072 0 0 0 2.301-1.16 4.083 4.083 0 0 0 1.157-2.302l.778-5.291zM351.484 82.68c.864.316 1.811.222 2.665-.264.813-.461 1.448-1.23 1.787-2.162.338-.932.345-1.928.018-2.805-.343-.92-1.008-1.6-1.871-1.913-1.737-.632-3.733.456-4.451 2.427-.57 1.57-.159 3.232.91 4.162.273.238.589.427.942.556zM358.026 83.695c1.627 1.416 4.262 1.06 5.875-.794 1.613-1.853 1.602-4.513-.025-5.928-1.626-1.416-4.261-1.06-5.875.794-1.612 1.854-1.601 4.513.025 5.928zM362.4 88.955c.178.3.399.562.653.784 1.187 1.032 3.094 1.175 4.69.231.919-.542 1.605-1.364 1.932-2.315.343-.994.256-2.008-.245-2.855-.5-.846-1.346-1.411-2.383-1.59-.99-.172-2.041.032-2.959.575-1.938 1.146-2.695 3.465-1.688 5.17zM368.955 93.968v-.001c-.401-1.805-2.391-2.906-4.438-2.454-2.046.454-3.386 2.29-2.988 4.095.145.658.502 1.222.996 1.652.861.75 2.14 1.09 3.442.803 2.046-.454 3.386-2.29 2.988-4.095z"/></g><g opacity=".3"><path d="M117.131 86.961a6.456 6.456 0 0 0 3.208-5.33 6.456 6.456 0 0 0-2.757-5.576l-4.38-3.07a4.077 4.077 0 0 0-2.467-.741 4.077 4.077 0 0 0-2.424.875 4.079 4.079 0 0 0-1.423 2.148 4.073 4.073 0 0 0 .138 2.573l.022.055a8.064 8.064 0 0 1-.29 6.416 4.108 4.108 0 0 0-.416 1.63c-.012.306.01.615.067.923a4.073 4.073 0 0 0 1.241 2.258c.65.604 1.46.975 2.343 1.073a4.075 4.075 0 0 0 2.52-.536l4.618-2.698zM117.674 73.949c.294.871.959 1.552 1.871 1.916.869.346 1.865.362 2.805.044.94-.318 1.721-.935 2.202-1.738.504-.843.619-1.787.324-2.657-.591-1.75-2.688-2.63-4.676-1.959-1.581.536-2.622 1.896-2.681 3.311-.015.362.034.727.155 1.083zM120.969 79.69c-.089 2.155 1.836 3.99 4.29 4.092 2.455.101 4.525-1.57 4.614-3.724.089-2.154-1.836-3.989-4.291-4.09-2.455-.102-4.524 1.569-4.613 3.723zM119.595 86.392a3.21 3.21 0 0 0-.204 1c-.065 1.572 1.016 3.15 2.749 3.807.998.378 2.069.4 3.015.062.99-.354 1.727-1.055 2.076-1.974.348-.92.261-1.934-.246-2.856-.485-.88-1.301-1.573-2.299-1.95-2.105-.798-4.389.06-5.091 1.912zM119.776 94.642h.001c1.159-1.44.775-3.683-.856-4.998-1.633-1.314-3.904-1.213-5.064.225a3.059 3.059 0 0 0-.668 1.81c-.047 1.14.486 2.351 1.523 3.189 1.633 1.314 3.904 1.213 5.064-.226z"/></g><g opacity=".6"><path d="M414.296 31.631a5.72 5.72 0 0 0 1.848-5.191 5.72 5.72 0 0 0-3.374-4.356l-4.343-1.895a3.61 3.61 0 0 0-2.272-.21 3.61 3.61 0 0 0-1.951 1.186c-.509.599-.805 1.33-.857 2.115a3.61 3.61 0 0 0 .572 2.21l.028.044a7.145 7.145 0 0 1 .878 5.621 3.623 3.623 0 0 0 1.62 4.02c.67.41 1.439.59 2.222.52a3.606 3.606 0 0 0 2.094-.909l3.535-3.155zM412.477 20.239c.409.705 1.105 1.179 1.962 1.334.815.148 1.682-.013 2.442-.455.76-.441 1.33-1.114 1.606-1.895.29-.82.224-1.66-.185-2.365-.821-1.416-2.797-1.81-4.404-.878-1.279.744-1.944 2.107-1.746 3.346.051.317.158.625.325.913zM416.349 24.645c.302 1.886 2.295 3.141 4.444 2.798 2.15-.344 3.653-2.158 3.352-4.045-.302-1.886-2.296-3.14-4.446-2.797-2.149.344-3.652 2.158-3.35 4.044zM416.335 30.704c-.05.306-.049.61-.002.904.22 1.376 1.436 2.556 3.057 2.822.932.153 1.866-.016 2.628-.476.798-.482 1.314-1.22 1.455-2.08.141-.86-.114-1.725-.716-2.435-.575-.68-1.406-1.137-2.339-1.29-1.968-.322-3.799.824-4.083 2.555zM417.943 37.835c.753-1.455.026-3.334-1.622-4.189-1.648-.854-3.603-.367-4.357 1.086a2.706 2.706 0 0 0-.261 1.69c.159.998.835 1.955 1.883 2.5 1.648.853 3.603.366 4.357-1.087z"/></g><g opacity=".8"><path d="M584.835 105.548a5.763 5.763 0 0 0 5.37 1.416 5.763 5.763 0 0 0 4.089-3.757l1.535-4.521a3.64 3.64 0 0 0 .019-2.3 3.644 3.644 0 0 0-1.356-1.858 3.64 3.64 0 0 0-2.197-.683 3.64 3.64 0 0 0-2.171.762l-.042.033a7.199 7.199 0 0 1-5.57 1.356 3.645 3.645 0 0 0-2.275.34 3.64 3.64 0 0 0-1.625 1.628 3.64 3.64 0 0 0-.333 2.276c.137.78.514 1.481 1.089 2.026l3.467 3.282zM596.123 102.759c-.674.47-1.091 1.209-1.174 2.082-.08.831.156 1.689.663 2.415.508.725 1.232 1.241 2.04 1.452.848.221 1.686.084 2.358-.386 1.353-.945 1.582-2.962.51-4.497-.855-1.222-2.281-1.774-3.508-1.47a2.644 2.644 0 0 0-.889.404zM592.026 107.017c-1.869.463-2.961 2.571-2.434 4.701.528 2.129 2.477 3.485 4.346 3.023 1.868-.463 2.959-2.572 2.432-4.701-.527-2.129-2.476-3.485-4.344-3.023zM585.939 107.518a2.861 2.861 0 0 0-.908.075c-1.363.337-2.445 1.658-2.575 3.308-.075.949.174 1.872.701 2.599.551.76 1.336 1.216 2.211 1.285.876.069 1.723-.26 2.385-.925.634-.635 1.023-1.508 1.097-2.458.157-2.003-1.149-3.746-2.911-3.884zM578.915 109.736c1.525.633 3.35-.257 4.069-1.984.718-1.727.063-3.649-1.459-4.283a2.738 2.738 0 0 0-1.719-.12c-.989.245-1.893 1.005-2.351 2.103-.718 1.728-.063 3.649 1.46 4.284z"/></g><g opacity=".5"><path d="M433.752 100.119a6.145 6.145 0 0 0-.939-5.847 6.144 6.144 0 0 0-5.429-2.364l-5.071.456a3.876 3.876 0 0 0-2.25.975 3.876 3.876 0 0 0-1.226 2.125 3.88 3.88 0 0 0 .283 2.436 3.878 3.878 0 0 0 1.68 1.788l.05.027a7.677 7.677 0 0 1 3.729 4.845 3.883 3.883 0 0 0 1.313 2.072 3.88 3.88 0 0 0 2.29.88 3.871 3.871 0 0 0 2.362-.658 3.882 3.882 0 0 0 1.505-1.937l1.703-4.798zM426.157 90.319c.749.453 1.65.54 2.537.245.845-.282 1.579-.882 2.068-1.69.488-.809.678-1.738.535-2.616-.151-.923-.647-1.68-1.395-2.133-1.506-.91-3.571-.262-4.605 1.446-.822 1.361-.744 2.99.083 4.055.211.272.471.508.777.693zM432.08 92.473c1.258 1.621 3.785 1.775 5.633.342 1.848-1.434 2.328-3.92 1.07-5.541-1.258-1.622-3.785-1.775-5.633-.342-1.848 1.433-2.328 3.919-1.07 5.54zM435.196 98.191c.111.314.269.6.465.853.918 1.183 2.673 1.668 4.337 1.082.959-.338 1.751-.98 2.232-1.806.503-.866.609-1.828.298-2.711-.312-.883-.998-1.567-1.933-1.926-.892-.343-1.912-.346-2.87-.008-2.021.712-3.155 2.738-2.529 4.516zM440.391 104.082h.001c-.042-1.76-1.697-3.155-3.692-3.111-1.994.047-3.585 1.515-3.546 3.273.015.642.244 1.235.626 1.727.666.859 1.797 1.412 3.066 1.384 1.994-.046 3.585-1.514 3.545-3.273z"/></g><g opacity=".7"><path d="M563.111 58.178a5.577 5.577 0 0 0 3.288-4.249 5.577 5.577 0 0 0-1.803-5.06l-3.448-3.075a3.52 3.52 0 0 0-2.042-.884 3.522 3.522 0 0 0-2.167.506c-.653.4-1.15.988-1.437 1.7a3.523 3.523 0 0 0-.141 2.22l.013.05a6.961 6.961 0 0 1-.894 5.474 3.53 3.53 0 0 0-.557 2.155 3.52 3.52 0 0 0 .837 2.062 3.52 3.52 0 0 0 1.902 1.156 3.52 3.52 0 0 0 2.216-.206l4.233-1.849zM564.885 47.071c.165.778.666 1.428 1.413 1.832.71.385 1.562.498 2.401.32.838-.178 1.571-.628 2.063-1.268.518-.672.712-1.47.547-2.247-.331-1.561-2.042-2.526-3.814-2.151-1.411.3-2.441 1.362-2.633 2.57-.05.309-.044.627.023.944zM567.133 52.328c-.294 1.84 1.172 3.608 3.268 3.942 2.096.334 4.039-.89 4.333-2.729.293-1.839-1.173-3.607-3.269-3.941-2.096-.335-4.039.89-4.332 2.728zM565.282 57.938a2.76 2.76 0 0 0-.276.837c-.214 1.342.554 2.805 1.974 3.543.818.425 1.734.551 2.58.357.885-.204 1.588-.731 1.98-1.485.391-.754.418-1.633.076-2.474-.327-.804-.958-1.48-1.775-1.905-1.726-.896-3.771-.39-4.559 1.127zM564.603 65.033h.001c1.139-1.12 1.036-3.08-.231-4.374-1.268-1.291-3.227-1.433-4.366-.316a2.64 2.64 0 0 0-.756 1.485c-.155.973.18 2.065.986 2.888 1.268 1.292 3.226 1.434 4.366.317z"/></g><g opacity=".9"><path d="M637.336 139.932a5.386 5.386 0 0 0 5.156.607 5.389 5.389 0 0 0 3.294-4.014l.829-4.386a3.403 3.403 0 0 0-.284-2.132 3.4 3.4 0 0 0-1.499-1.542 3.402 3.402 0 0 0-2.123-.344 3.406 3.406 0 0 0-1.91.989l-.034.036a6.734 6.734 0 0 1-4.98 1.985 3.415 3.415 0 0 0-3.352 2.332 3.404 3.404 0 0 0-.011 2.151c.23.704.67 1.304 1.274 1.733l3.64 2.585zM647.422 135.872c-.562.523-.851 1.262-.814 2.082.035.779.365 1.542.93 2.148.565.605 1.303.988 2.079 1.077.814.094 1.572-.143 2.132-.666 1.129-1.052 1.076-2.949-.117-4.23-.952-1.019-2.343-1.343-3.44-.901-.28.113-.541.276-.77.49zM644.186 140.351c-1.67.673-2.404 2.768-1.637 4.67.766 1.902 2.749 2.903 4.418 2.23s2.403-2.768 1.636-4.671c-.766-1.902-2.748-2.902-4.417-2.229zM638.618 141.611c-.292.019-.57.083-.831.189-1.217.49-2.047 1.855-1.95 3.399.055.889.406 1.711.989 2.314.609.632 1.396.952 2.215.901.82-.051 1.561-.467 2.087-1.169.503-.671.75-1.53.694-2.419-.117-1.876-1.555-3.318-3.204-3.215zM632.405 144.584v.001c1.494.386 3.068-.677 3.507-2.37.439-1.693-.419-3.386-1.912-3.774a2.557 2.557 0 0 0-1.606.114c-.884.356-1.621 1.178-1.901 2.255-.439 1.693.419 3.386 1.912 3.774z"/></g><path d="M592.234 202.215a5.39 5.39 0 0 0 5.157.608 5.388 5.388 0 0 0 3.293-4.014l.829-4.387a3.392 3.392 0 0 0-.284-2.131 3.4 3.4 0 0 0-1.498-1.543 3.403 3.403 0 0 0-2.123-.344 3.398 3.398 0 0 0-1.91.99l-.035.035a6.728 6.728 0 0 1-4.979 1.986 3.392 3.392 0 0 0-2.062.611 3.401 3.401 0 0 0-1.291 1.721 3.4 3.4 0 0 0-.01 2.15 3.397 3.397 0 0 0 1.273 1.733l3.64 2.585zM602.32 198.155c-.562.524-.851 1.263-.814 2.082.035.78.366 1.543.931 2.149a3.4 3.4 0 0 0 2.078 1.077c.814.094 1.572-.143 2.133-.667 1.128-1.051 1.076-2.948-.118-4.23-.951-1.018-2.343-1.343-3.44-.901-.28.113-.541.276-.77.49zM599.084 202.635c-1.669.673-2.404 2.768-1.637 4.67.767 1.902 2.749 2.902 4.418 2.229 1.67-.673 2.404-2.768 1.637-4.67-.767-1.902-2.749-2.902-4.418-2.229zM593.516 203.895a2.65 2.65 0 0 0-.83.188c-1.218.491-2.047 1.855-1.951 3.4.055.889.407 1.711.989 2.314.61.632 1.397.951 2.216.9.819-.051 1.56-.466 2.087-1.169.503-.671.749-1.53.693-2.419-.117-1.875-1.554-3.317-3.204-3.214zM587.303 206.868h.001c1.494.387 3.067-.676 3.507-2.369.438-1.694-.42-3.387-1.912-3.774a2.546 2.546 0 0 0-1.607.114c-.883.356-1.621 1.178-1.901 2.255-.438 1.693.419 3.386 1.912 3.774z"/></g><path d="M509.212 133.191a9.91 9.91 0 0 1 7.34 6.11 9.906 9.906 0 0 1-1.183 9.476l.405.293-.405-.293-5.043 6.996a6.076 6.076 0 0 1-3.111 2.253 6.07 6.07 0 0 1-3.84-.045 6.068 6.068 0 0 1-3.056-2.327 6.067 6.067 0 0 1-1.066-3.69 13.504 13.504 0 0 0-3.914-10.017l-.004-.004-.067-.066v-.001a6.072 6.072 0 0 1-1.743-3.422 6.075 6.075 0 0 1 .641-3.787 6.069 6.069 0 0 1 2.774-2.657l-.216-.451.216.451a6.071 6.071 0 0 1 3.809-.48l8.463 1.661zM508.435 129.196h.001c.896.976 2.175 1.494 3.623 1.439 1.38-.052 2.746-.629 3.842-1.637s1.784-2.321 1.952-3.692l-9.418 3.89zm0 0a4.317 4.317 0 0 1-.838-1.34c-.755-1.91-.187-4.38 1.66-6.081 2.332-2.142 5.675-2.147 7.466-.199v.001m-8.288 7.619 8.288-7.619m0 0c.896.974 1.305 2.291 1.13 3.729l-1.13-3.729zM525.491 138.604c-3.487 1.377-7.195-.022-8.349-2.944-1.154-2.921.597-6.477 4.083-7.854 3.488-1.377 7.197.022 8.351 2.943 1.154 2.921-.598 6.478-4.085 7.855zM531.681 145.921c.079 1.426-.484 2.802-1.615 3.878-1.081 1.03-2.559 1.653-4.166 1.742-2.798.155-5.205-1.366-6.047-3.498a4.632 4.632 0 0 1-.318-1.451l-.002-.028c-.139-2.843 2.384-5.402 5.782-5.59 1.607-.089 3.145.367 4.333 1.271 1.243.945 1.954 2.251 2.033 3.676zm0 0 .499-.027m-.499.027.499-.027m0 0c.088 1.583-.54 3.098-1.769 4.267l1.769-4.267zm-2.229-4.046h-.001.001zM524.219 158.497c.655-2.55-1.142-5.346-4.184-6.159l4.184 6.159zm0 0-.009.036c-.684 2.556-3.648 4.102-6.704 3.288l6.713-3.324zm-10.887-2.872a4.427 4.427 0 0 0 .18 2.792c.615 1.556 2.061 2.886 3.993 3.404l-4.173-6.196zm0 0c.683-2.555 3.646-4.102 6.703-3.287l-6.703 3.287z" fill="#78C0DE" stroke="#000"/><path d="m447.819 194.404.47-.472 11.387 11.385-.277.275-3.02 3.015c-1.934 1.939-6.052.959-9.198-2.183-3.144-3.148-4.123-7.264-2.188-9.198l2.821-2.822h.005z" fill="#5A6E7F"/><path d="m451.076 191.194 11.386 11.378-2.786 2.745-11.387-11.385.326-.326.009.006 2.452-2.418z" fill="#78C0DE"/><path d="M511.636 97C536.138 97 556 116.867 556 141.371c0 24.503-19.862 44.366-44.364 44.366a44.14 44.14 0 0 1-24.553-7.418l-24.621 24.253-11.386-11.378 24.46-24.092c-5.187-7.26-8.271-16.129-8.271-25.731 0-24.504 19.862-44.371 44.371-44.371zm-.607 75.567c17.227 0 31.197-13.965 31.197-31.196 0-17.232-13.97-31.197-31.197-31.197-17.231 0-31.198 13.965-31.198 31.197 0 17.231 13.967 31.196 31.198 31.196z" fill="#333"/></svg>