<svg width="754" height="435" fill="none" xmlns="http://www.w3.org/2000/svg"><path d="M6.328 378.264c-1.502 3.061-3.038 7.451-2.42 9.754.616 2.302 4.141 5.337 6.973 7.235 3.17 2.126 8.213 4.77 14.234 5.29a2.37 2.37 0 0 0 2.345-1.344 26.078 26.078 0 0 0 2.139-15.612l9.184-2.463a35.475 35.475 0 0 1-.447 15.73 2.37 2.37 0 1 0 4.59 1.187 40.224 40.224 0 0 0 .445-18.147l9.171-2.459a49.34 49.34 0 0 1 .89 15.579 2.37 2.37 0 1 0 4.715.481c.591-5.79.247-11.595-1.022-17.289l9.164-2.458a64.025 64.025 0 0 1 1.564 11.593 2.37 2.37 0 1 0 4.736-.2 68.789 68.789 0 0 0-1.718-12.621l7.408-1.987a16.462 16.462 0 0 0 6.955 7.828 16.482 16.482 0 0 0 12.59 1.658 2.372 2.372 0 0 0 .95-4.07 23.206 23.206 0 0 1-6.68-24.933 2.37 2.37 0 0 0-2.859-3.049 16.481 16.481 0 0 0-10.074 7.73 16.467 16.467 0 0 0-2.109 10.258l-7.409 1.986a68.804 68.804 0 0 0-4.817-11.775 2.366 2.366 0 0 0-3.199-1.002 2.37 2.37 0 0 0-1.003 3.198 64.092 64.092 0 0 1 4.438 10.807l-9.163 2.458a54.069 54.069 0 0 0-7.757-15.474 2.368 2.368 0 0 0-3.31-.534 2.37 2.37 0 0 0-.534 3.309 49.33 49.33 0 0 1 7.017 13.928l-9.171 2.459a40.225 40.225 0 0 0-9.457-15.488 2.367 2.367 0 0 0-3.352-.03 2.37 2.37 0 0 0-.03 3.352 35.477 35.477 0 0 1 8.251 13.396l-9.184 2.462a26.08 26.08 0 0 0-9.658-12.45 2.37 2.37 0 0 0-2.702.009c-4.956 3.461-8.001 8.272-9.684 11.698zm10.702 3.784a2.37 2.37 0 1 1 1.228 4.577 2.37 2.37 0 0 1-1.228-4.577z" fill="#F3F3F3"/><path d="M740.539 94.898c3.658-.246 8.573-1.177 10.385-2.99 1.813-1.812 2.744-6.727 2.989-10.384.276-4.096.026-10.214-2.727-16.101a2.55 2.55 0 0 0-2.513-1.46 28.044 28.044 0 0 0-15.689 6.402l-7.232-7.23a38.156 38.156 0 0 1 14.89-8.041 2.55 2.55 0 0 0-1.362-4.913 43.261 43.261 0 0 0-17.14 9.344l-7.221-7.22a53.048 53.048 0 0 1 14.03-9.204 2.549 2.549 0 1 0-2.087-4.65 58.145 58.145 0 0 0-15.552 10.247l-7.216-7.213a68.844 68.844 0 0 1 9.955-7.689 2.55 2.55 0 0 0-2.732-4.304 73.972 73.972 0 0 0-10.83 8.387l-5.834-5.831a17.706 17.706 0 0 0 3.551-10.686c0-4.765-1.856-9.246-5.226-12.615a2.547 2.547 0 0 0-4.301 1.302 24.955 24.955 0 0 1-19.628 19.628 2.549 2.549 0 0 0-1.302 4.301 17.724 17.724 0 0 0 12.616 5.226c3.905 0 7.618-1.248 10.686-3.552l5.834 5.832a73.953 73.953 0 0 0-8.376 10.818 2.546 2.546 0 0 0 .786 3.518 2.55 2.55 0 0 0 3.518-.787 68.855 68.855 0 0 1 7.679-9.943l7.215 7.213a58.147 58.147 0 0 0-10.24 15.543 2.548 2.548 0 1 0 4.651 2.088 53.042 53.042 0 0 1 9.198-14.024l7.221 7.219a43.27 43.27 0 0 0-9.339 17.135 2.55 2.55 0 0 0 4.913 1.362 38.148 38.148 0 0 1 8.039-14.886l7.231 7.229a28.04 28.04 0 0 0-6.402 15.689 2.55 2.55 0 0 0 1.461 2.512c5.888 2.754 12.006 3.003 16.101 2.728zm-2.23-12a2.548 2.548 0 1 1 3.604-3.605 2.548 2.548 0 1 1-3.604 3.604zM268.987 29.294c.585-2.969.893-7.085-.165-8.918-1.058-1.832-4.777-3.624-7.64-4.601-3.206-1.095-8.137-2.202-13.419-1.265a2.104 2.104 0 0 0-1.701 1.691 23.144 23.144 0 0 0 1.753 13.876l-7.308 4.22a31.472 31.472 0 0 1-3.231-13.588 2.103 2.103 0 1 0-4.207.037 35.7 35.7 0 0 0 3.787 15.66l-7.298 4.215a43.792 43.792 0 0 1-4.341-13.152 2.103 2.103 0 1 0-4.153.671 47.976 47.976 0 0 0 4.847 14.588l-7.291 4.212a56.806 56.806 0 0 1-4.004-9.58 2.103 2.103 0 1 0-4.015 1.26 61.163 61.163 0 0 0 4.373 10.425l-5.895 3.405a14.612 14.612 0 0 0-7.76-5.113 14.63 14.63 0 0 0-11.174 1.47 2.103 2.103 0 0 0 .119 3.708 20.596 20.596 0 0 1 11.455 19.84 2.102 2.102 0 0 0 3.151 1.958 14.628 14.628 0 0 0 6.861-8.941 14.62 14.62 0 0 0-.548-9.278l5.895-3.405a61.096 61.096 0 0 0 6.835 8.988 2.104 2.104 0 1 0 3.097-2.848 56.928 56.928 0 0 1-6.287-8.246l7.292-4.211a47.99 47.99 0 0 0 10.205 11.484 2.103 2.103 0 0 0 2.959-.302c.734-.901.599-2.226-.302-2.96a43.8 43.8 0 0 1-9.215-10.329l7.298-4.215a35.704 35.704 0 0 0 11.665 11.106 2.105 2.105 0 0 0 2.136-3.625 31.486 31.486 0 0 1-10.151-9.59l7.308-4.22a23.147 23.147 0 0 0 11.14 8.455 2.104 2.104 0 0 0 2.315-.628c3.453-4.106 4.959-8.93 5.614-12.254zm-10.044-.785a2.103 2.103 0 1 1-2.103-3.642 2.103 2.103 0 0 1 2.103 3.642zM495.388 348.875c.856-4.345 1.307-10.37-.241-13.052-1.549-2.682-6.992-5.304-11.183-6.735-4.693-1.601-11.909-3.223-19.64-1.851a3.08 3.08 0 0 0-2.49 2.475 33.871 33.871 0 0 0 2.566 20.309l-10.697 6.177a46.09 46.09 0 0 1-4.728-19.888 3.078 3.078 0 0 0-6.157.054 52.242 52.242 0 0 0 5.543 22.921l-10.682 6.169a64.11 64.11 0 0 1-6.353-19.25 3.079 3.079 0 0 0-6.079.982 70.221 70.221 0 0 0 7.095 21.351l-10.672 6.164a83.095 83.095 0 0 1-5.86-14.02 3.078 3.078 0 1 0-5.876 1.843 89.386 89.386 0 0 0 6.4 15.259l-8.628 4.983c-2.859-3.647-6.802-6.263-11.358-7.484a21.412 21.412 0 0 0-16.354 2.153 3.078 3.078 0 0 0 .175 5.427 30.144 30.144 0 0 1 16.765 29.039 3.077 3.077 0 0 0 4.612 2.864 21.41 21.41 0 0 0 10.042-13.086c1.221-4.557.926-9.28-.803-13.58l8.629-4.984a89.268 89.268 0 0 0 10.004 13.155 3.075 3.075 0 0 0 4.35.183 3.078 3.078 0 0 0 .183-4.35 83.22 83.22 0 0 1-9.202-12.069l10.672-6.164a70.25 70.25 0 0 0 14.935 16.808 3.079 3.079 0 1 0 3.89-4.774 64.1 64.1 0 0 1-13.488-15.117l10.681-6.169a52.273 52.273 0 0 0 17.074 16.254 3.081 3.081 0 0 0 4.216-1.09 3.08 3.08 0 0 0-1.09-4.216 46.087 46.087 0 0 1-14.857-14.034l10.696-6.178a33.877 33.877 0 0 0 16.305 12.375 3.08 3.08 0 0 0 3.388-.919c5.054-6.009 7.258-13.07 8.217-17.935zm-14.7-1.149a3.079 3.079 0 1 1-3.08-5.332 3.079 3.079 0 0 1 3.08 5.332z" fill="#F3F3F3" opacity=".3"/></svg>