<svg width="129" height="129" fill="none" xmlns="http://www.w3.org/2000/svg"><path d="M124.388 42.875c.856-4.345 1.307-10.37-.241-13.052-1.549-2.682-6.992-5.304-11.183-6.735-4.693-1.602-11.909-3.223-19.64-1.85a3.079 3.079 0 0 0-2.49 2.474A33.876 33.876 0 0 0 93.4 44.02l-10.697 6.178a46.086 46.086 0 0 1-4.728-19.887 3.079 3.079 0 1 0-6.157.053 52.255 52.255 0 0 0 5.543 22.92l-10.682 6.17a64.095 64.095 0 0 1-6.353-19.25 3.079 3.079 0 1 0-6.08.982 70.238 70.238 0 0 0 7.096 21.35L50.67 68.702a83.157 83.157 0 0 1-5.86-14.02 3.079 3.079 0 1 0-5.876 1.843 89.365 89.365 0 0 0 6.4 15.259l-8.628 4.983c-2.859-3.647-6.802-6.263-11.358-7.484a21.41 21.41 0 0 0-16.354 2.154 3.079 3.079 0 0 0 .175 5.426A30.145 30.145 0 0 1 25.934 105.9a3.078 3.078 0 0 0 4.612 2.864 21.41 21.41 0 0 0 10.042-13.087c1.22-4.556.926-9.278-.803-13.579l8.629-4.984A89.345 89.345 0 0 0 58.418 90.27a3.077 3.077 0 0 0 4.35.183 3.08 3.08 0 0 0 .182-4.35 83.203 83.203 0 0 1-9.201-12.069L64.42 67.87a70.24 70.24 0 0 0 14.935 16.808 3.08 3.08 0 0 0 3.89-4.774 64.094 64.094 0 0 1-13.488-15.117l10.681-6.17a52.256 52.256 0 0 0 17.074 16.255 3.08 3.08 0 0 0 3.126-5.306 46.083 46.083 0 0 1-14.857-14.034l10.696-6.178a33.877 33.877 0 0 0 16.305 12.375 3.08 3.08 0 0 0 3.388-.92c5.054-6.008 7.258-13.069 8.217-17.934zm-14.7-1.149a3.079 3.079 0 1 1-3.08-5.333 3.079 3.079 0 0 1 3.08 5.333z" fill="#F3F3F3" opacity=".3"/></svg>