<svg width="850" height="648" fill="none" xmlns="http://www.w3.org/2000/svg"><g opacity=".1" fill="#fff"><path d="M146.514 122.568c-2.008-14.976-11.376-27.727-25.06-34.107-13.684-6.381-29.473-5.36-42.234 2.728l-30.754 19.489a27.766 27.766 0 0 0-11.121 13.562 27.768 27.768 0 0 0-.857 17.52 27.731 27.731 0 0 0 9.758 14.567 27.706 27.706 0 0 0 16.518 5.87l.405.007c15.145.443 29.53 7.212 39.527 18.612a27.725 27.725 0 0 0 9.148 6.883 28.107 28.107 0 0 0 5.962 1.997 27.718 27.718 0 0 0 17.432-1.888 27.755 27.755 0 0 0 12.873-11.915 27.773 27.773 0 0 0 3.243-17.241l-4.84-36.084zM66.794 84.534c6.213.434 12.196-1.943 16.846-6.695 4.426-4.521 7.118-10.7 7.579-17.401.458-6.697-1.363-13.188-5.126-18.278-3.955-5.346-9.554-8.527-15.76-8.953-12.483-.87-23.437 9.938-24.42 24.098-.769 11.277 5.018 21.32 13.713 25.374a20.195 20.195 0 0 0 7.168 1.855zM111.174 78.728c13.423 6.259 30-.78 36.953-15.692 6.955-14.916 1.692-32.142-11.73-38.4-13.421-6.259-29.998.784-36.953 15.7-6.953 14.91-1.691 32.134 11.73 38.392zM149.329 105.17l.001.001a21.323 21.323 0 0 0 5.695 3.882c9.626 4.489 22.314 1.772 30.975-7.457 4.987-5.312 7.945-12.008 8.327-18.854.402-7.166-2.028-13.637-6.844-18.223-4.818-4.585-11.37-6.665-18.45-5.857-6.765.77-13.235 4.122-18.219 9.435-10.516 11.208-11.182 27.839-1.485 37.073zM201.84 125.413l-.002-.006c-6.016-10.985-21.057-14.453-33.532-7.728-12.471 6.733-17.733 21.148-11.733 32.132 2.187 4.007 5.577 7.016 9.606 8.894 7.021 3.275 15.989 3.118 23.928-1.157 12.469-6.734 17.733-21.149 11.733-32.135z"/></g><g opacity=".1" fill="#fff"><path d="M363.709 125.411c3.085 9.705 10.795 17.072 20.625 19.706 9.83 2.634 20.19.109 27.714-6.754l18.132-16.535a18.72 18.72 0 0 0 5.795-10.303c.783-3.998.27-8.053-1.482-11.73a18.686 18.686 0 0 0-8.181-8.526 18.667 18.667 0 0 0-11.651-1.963l-.27.042a36.95 36.95 0 0 1-28.414-7.728 18.692 18.692 0 0 0-11.069-4.126 18.685 18.685 0 0 0-11.35 3.294 18.71 18.71 0 0 0-7.15 9.415 18.717 18.717 0 0 0-.135 11.823l7.436 23.385zM421.075 141.326c-4.176.439-7.869 2.717-10.399 6.416-2.408 3.519-3.472 7.935-2.994 12.437.48 4.499 2.448 8.594 5.542 11.532 3.25 3.085 7.339 4.542 11.509 4.098 8.387-.884 14.392-9.339 13.388-18.853-.81-7.575-5.826-13.564-12.072-15.238a13.61 13.61 0 0 0-4.974-.392zM392.296 150.374c-9.641-2.584-19.821 4.029-22.691 14.74-2.871 10.714 2.638 21.532 12.28 24.116 9.641 2.583 19.82-4.031 22.69-14.745 2.871-10.712-2.638-21.528-12.279-24.111zM363.876 137.288h-.001a14.34 14.34 0 0 0-4.234-1.911c-6.915-1.853-15.018 1.436-19.687 8.575-2.689 4.109-3.868 8.9-3.321 13.489.572 4.804 2.943 8.814 6.676 11.294 3.734 2.48 8.326 3.094 12.932 1.729 4.399-1.303 8.302-4.285 10.988-8.395 5.669-8.67 4.165-19.786-3.353-24.781zM326.653 129.997l.002.004c5.279 6.587 15.668 7.129 23.162 1.205 7.489-5.928 9.295-16.113 4.028-22.701-1.921-2.404-4.523-4.004-7.417-4.779-5.044-1.352-10.978-.199-15.747 3.568-7.489 5.929-9.296 16.113-4.028 22.703z"/></g><g opacity=".1" fill="#fff"><path d="M42.39 403.037c-.652-14.136-8.351-26.798-20.598-33.868-12.246-7.071-27.06-7.407-39.628-.903l-30.284 15.673a26.005 26.005 0 0 0-11.483 11.746 26.005 26.005 0 0 0-2.23 16.276 25.968 25.968 0 0 0 7.914 14.387 25.94 25.94 0 0 0 14.933 6.826l.378.04A51.341 51.341 0 0 1-3.25 453.806a25.972 25.972 0 0 0 7.973 7.168 26.299 26.299 0 0 0 5.4 2.351 25.969 25.969 0 0 0 16.418-.339 25.999 25.999 0 0 0 12.984-10.066 26.008 26.008 0 0 0 4.433-15.821l-1.57-34.062zM-28.887 361.043c5.762.912 11.538-.817 16.265-4.871 4.498-3.857 7.514-9.403 8.491-15.617.974-6.211-.194-12.416-3.29-17.472-3.253-5.311-8.218-8.736-13.974-9.641-11.575-1.829-22.677 7.36-24.75 20.491-1.639 10.459 2.94 20.301 10.722 24.794a18.93 18.93 0 0 0 6.536 2.316zM12.996 359.249c12.012 6.935 28.054 1.721 35.758-11.624 7.707-13.349 4.204-29.85-7.809-36.786-12.011-6.934-28.052-1.717-35.76 11.631-7.704 13.345-4.2 29.844 7.811 36.779zM46.436 387.034l.001.001a19.957 19.957 0 0 0 4.996 4.087c8.615 4.974 20.675 3.475 29.51-4.428 5.086-4.549 8.392-10.556 9.308-16.912.96-6.653-.78-12.889-4.899-17.56-4.12-4.672-10.064-7.147-16.736-6.972-6.374.167-12.684 2.766-17.768 7.317-10.727 9.597-12.706 25.06-4.412 34.467zM93.778 410.208l-.002-.006c-4.716-10.74-18.466-15.203-30.655-9.948-12.184 5.264-18.272 18.284-13.57 29.022 1.713 3.917 4.63 7.001 8.236 9.083 6.284 3.628 14.664 4.214 22.42.873 12.183-5.264 18.272-18.284 13.57-29.024z"/></g><g opacity=".1" fill="#fff"><path d="M852.926 540.411c-9.686-5.013-21.103-4.753-30.541.696-9.437 5.449-15.371 15.207-15.872 26.1l-1.209 26.252a20.038 20.038 0 0 0 3.414 12.19 20.041 20.041 0 0 0 10.004 7.76 20.013 20.013 0 0 0 12.652.261 19.984 19.984 0 0 0 10.309-7.336l.172-.236a39.574 39.574 0 0 1 27.369-15.665 20.022 20.022 0 0 0 7.857-2.559 20.31 20.31 0 0 0 3.649-2.698 20.015 20.015 0 0 0 6.1-11.089 20.038 20.038 0 0 0-1.715-12.544 20.047 20.047 0 0 0-8.851-9.055l-23.338-12.077zM797.433 571.8c2.83-3.494 3.901-8.015 3.017-12.732-.841-4.489-3.38-8.638-7.151-11.685-3.77-3.043-8.362-4.654-12.929-4.536-4.798.125-8.997 2.118-11.819 5.611-5.681 7.021-3.826 17.971 4.139 24.415 6.349 5.123 14.682 5.859 20.679 2.397a14.578 14.578 0 0 0 4.064-3.47zM812.375 543.156c9.257-5.345 11.958-18.061 6.02-28.345-5.939-10.287-18.302-14.307-27.56-8.963-9.256 5.345-11.955 18.061-6.016 28.348 5.938 10.285 18.299 14.304 27.556 8.96zM843.804 531.545l.001-.001a15.379 15.379 0 0 0 4.653-1.759c6.639-3.833 10.285-12.46 8.415-21.402-1.076-5.147-3.811-9.668-7.7-12.728-4.071-3.205-8.903-4.447-13.608-3.498-4.705.95-8.647 3.963-11.102 8.484-2.344 4.318-3.041 9.531-1.963 14.678 2.272 10.857 11.829 18.136 21.304 16.226zM877.512 508.878l-.004-.001c-8.985-.991-17.263 6.466-18.452 16.626-1.181 10.161 5.163 19.24 14.141 20.24 3.275.366 6.457-.393 9.235-1.997 4.843-2.796 8.463-8.163 9.222-14.627 1.181-10.16-5.162-19.24-14.142-20.241z"/></g><g opacity=".1" fill="#fff"><path d="M824.729 57.521c-8.855-6.439-20.226-7.907-30.416-3.926-10.191 3.981-17.554 12.768-19.699 23.504l-5.168 25.871a20.115 20.115 0 0 0 1.546 12.615 20.119 20.119 0 0 0 8.755 9.213 20.092 20.092 0 0 0 12.517 2.173 20.073 20.073 0 0 0 11.341-5.723l.206-.209a39.725 39.725 0 0 1 29.531-11.408 20.102 20.102 0 0 0 12.214-3.479 20.085 20.085 0 0 0 7.731-10.083 20.116 20.116 0 0 0 .194-12.709 20.129 20.129 0 0 0-7.415-10.324L824.729 57.52zM764.909 80.284c3.336-3.04 5.083-7.365 4.918-12.18-.156-4.582-2.049-9.084-5.33-12.678-3.282-3.59-7.595-5.883-12.146-6.456-4.781-.602-9.249.742-12.578 3.782-6.7 6.109-6.514 17.257.417 24.856 5.526 6.045 13.686 8.036 20.161 5.506a14.646 14.646 0 0 0 4.558-2.83zM784.068 54.115c9.995-3.905 14.598-16.116 10.26-27.221-4.339-11.107-16.002-16.967-25.998-13.061-9.994 3.904-14.596 16.117-10.256 27.224 4.338 11.105 15.999 16.963 25.994 13.058zM817.016 47.342h.001a15.43 15.43 0 0 0 4.884-1.043c7.168-2.8 12.092-10.81 11.587-19.968-.29-5.271-2.321-10.172-5.718-13.797-3.556-3.796-8.164-5.76-12.976-5.528-4.814.23-9.182 2.625-12.301 6.741-2.98 3.931-4.46 9-4.168 14.27.614 11.12 8.999 19.789 18.691 19.325zM853.898 29.942l-.004-.002c-8.768-2.341-18.11 3.808-20.826 13.712-2.709 9.905 2.215 19.876 10.974 22.225 3.195.858 6.467.586 9.468-.586 5.229-2.043 9.633-6.822 11.363-13.122 2.708-9.905-2.214-19.876-10.975-22.227z"/></g><g opacity=".1" fill="#fff"><path d="M395.426 600.837c-12.474-6.456-27.179-6.121-39.334.897-12.156 7.018-19.798 19.585-20.443 33.616l-1.557 33.81a25.805 25.805 0 0 0 4.397 15.7 25.811 25.811 0 0 0 12.884 9.994 25.772 25.772 0 0 0 16.296.337 25.748 25.748 0 0 0 13.277-9.448l.222-.305c8.413-11.296 21.238-18.642 35.249-20.174a25.785 25.785 0 0 0 10.119-3.297 26.1 26.1 0 0 0 4.7-3.475 25.774 25.774 0 0 0 7.857-14.281 25.805 25.805 0 0 0-2.209-16.156 25.815 25.815 0 0 0-11.399-11.663l-30.059-15.555zM323.955 641.264c3.644-4.5 5.024-10.323 3.885-16.398-1.083-5.781-4.353-11.125-9.21-15.049-4.855-3.92-10.769-5.995-16.652-5.843-6.179.161-11.587 2.728-15.221 7.227-7.317 9.042-4.928 23.146 5.33 31.445 8.177 6.598 18.911 7.547 26.634 3.088a18.765 18.765 0 0 0 5.234-4.47zM343.199 604.372c11.923-6.884 15.402-23.26 7.754-36.506-7.649-13.249-23.573-18.427-35.496-11.544-11.922 6.884-15.398 23.262-7.749 36.511 7.648 13.246 23.569 18.422 35.491 11.539zM383.679 589.418l.001-.001a19.792 19.792 0 0 0 5.993-2.266c8.55-4.937 13.247-16.047 10.838-27.564-1.386-6.629-4.908-12.452-9.918-16.394-5.242-4.127-11.466-5.727-17.525-4.504-6.061 1.223-11.138 5.104-14.299 10.926-3.019 5.562-3.917 12.276-2.529 18.905 2.927 13.983 15.236 23.358 27.439 20.898zM427.093 560.224l-.005-.001c-11.573-1.276-22.234 8.328-23.765 21.414-1.522 13.086 6.649 24.78 18.212 26.068 4.218.471 8.316-.506 11.895-2.573 6.237-3.601 10.899-10.513 11.877-18.838 1.521-13.086-6.649-24.78-18.214-26.07z"/></g></svg>