<svg width="158" height="77" fill="none" xmlns="http://www.w3.org/2000/svg"><path d="M9.744 33.71 0 29.22l10.549-4.871c.299-14.575 14.38-17.734 20.22-17.168 5.84.566 22.828 10.985 15.982 32.268-2.332 7.253-1.782 26.02 25.438 24.286-2.044 3.853-11.641 19.835-42.875 9.668-8.66-2.819-21-16.773-19.57-39.693z" fill="#FFBD54"/><path d="M98.613 29.102c.855-10.323-4.496-19.68-7.631-21.836-2.925-2.011-2.936 6.67-5.54 11.43a32.882 32.882 0 0 0-12.668-2.516 32.87 32.87 0 0 0-12.646 2.508c-2.6-4.764-2.613-13.433-5.536-11.424-3.132 2.147-8.472 11.498-7.632 21.802-3.224 4.521-5.105 9.937-5.105 15.762 0 15.822 13.843 27.557 30.918 27.557 17.077 0 30.919-11.735 30.919-27.557 0-5.81-1.872-11.211-5.079-15.726z" fill="#78C0DE"/><path d="M97.102 46.639c.799-14.164 6.208-16.122 6.919-24.784.984-11.994 9.246-20.715 13.328-21.789 4.082-1.07-1.125 11.101 2.534 15.232 7.652-2.652 12.512-.393 16.35 3.759 3.841 4.153-1.172 8.12 6.345 7.056 3.092-.44 6.306-.336 8.996.35a3.71 3.71 0 0 1 .828-.416c2.117-.733 4.496.589 5.317 2.956.31.896.35 1.814.168 2.648.094.457.133.942.103 1.458-.414 7.28-9.387 17.309-14.961 18.04-5.574.732-11.493-.231-11.644 10.922-.201 14.854-33.082 20.733-41.136 5.652 5.894-4.264 6.243-10.267 6.853-21.084z" fill="#000"/><path d="M121.798 19.701c3.849.34 6.907-1.704 9.883-3.996-1.197-.148-2.519-.157-4.003.012-2.23-4.032 4.231-13.007.707-12.877-3.176.113-11.304 4.466-15.051 12.354 2.72 1.828 4.884 4.701 8.464 4.507z" fill="#000"/><path d="M33.941 30.643a3.255 3.255 0 0 0-1.405-.107c-1.376.196-2.539 1.275-2.887 2.669L26.562 44.74l-6.156-10.232c-.773-1.231-2.202-1.929-3.56-1.735-.462.066-.89.23-1.272.489-.864.533-1.46 1.335-1.678 2.264a3.362 3.362 0 0 0 .43 2.573l10.415 17.485c.074.15.19.369.393.546a.954.954 0 0 0 .246.198l.093.133.128.097c.046.035.098.072.158.105l.025.173.44.147.134.1.997.215.296.056.148-.021c.254.013.442-.014.55-.029.148-.02.342-.049.582-.133l.224-.032.183-.126.895-.575.183-.244c.054-.06.131-.144.21-.267.063-.072.116-.153.156-.24a3.28 3.28 0 0 0 .079-.131l.015-.025c.087-.094.157-.202.206-.32a2.18 2.18 0 0 0 .2-.55l5.204-19.698a3.386 3.386 0 0 0-.298-2.615c-.474-.838-1.28-1.446-2.247-1.705zM72.594 30.506c-8.291.144-14.967 7.21-14.88 15.767.213 8.62 6.983 15.308 15.413 15.222h.009c4.437-.078 8.028-1.478 10.973-4.28.717-.678 1.108-1.54 1.13-2.493.03-1.223-.558-2.295-1.129-2.902-.614-.704-1.693-1.11-2.897-1.09-1.21.022-2.327.475-3.084 1.247-.972.73-2.663 1.216-4.34 1.246a8.717 8.717 0 0 1-.695-.016c-1.75-.119-3.739-.996-4.726-2.086l-.08-.08c-.449-.41-.848-.992-1.16-1.681l16.544-.289c2.155-.038 3.816-1.377 4.09-3.276.064-.238.076-.499.07-.8l-.008-.356c-.64-8.333-7.045-14.277-15.23-14.134zm6.799 11.376-12.615.22c.863-1.707 2.773-3.53 5.933-3.761 3.24.228 5.54 1.908 6.682 3.54zM122.868 44.21c2.256.236 4.357-1.445 4.589-3.67.236-2.266-1.438-4.302-3.732-4.54l-.215-.024.699-6.7c.24-2.302-1.375-4.294-3.677-4.534-2.333-.244-4.349 1.37-4.589 3.671l-.7 6.7-.432-.045c-2.303-.24-4.295 1.375-4.536 3.678a4.134 4.134 0 0 0 3.678 4.535l.432.044-1.456 13.94c-.411 3.931 2.454 7.465 6.387 7.876 2.302.24 4.294-1.374 4.536-3.678.202-1.933-.871-3.647-2.554-4.315l1.353-12.96.217.023z" fill="#fff"/></svg>