<svg width="37" height="42" fill="none" xmlns="http://www.w3.org/2000/svg"><path d="M4.876 16h2.6V2.66h-4.52V4.9h1.92V16z" fill="#333"/><path d="M35.63 25.662h-4.313l-1.105 4.9c.713-.434 1.358-.602 2.015-.602.449 0 .967.042 1.457.476.392.35.546.742.546 1.288 0 .602-.224 1.078-.49 1.358-.224.238-.645.56-1.428.56-.448 0-.896-.084-1.358-.35-.434-.224-.7-.504-.966-.84l-.602 1.568c.335.322.756.616 1.134.798.713.35 1.512.392 2.015.392 1.009 0 1.82-.21 2.563-.952.63-.63.952-1.442.952-2.436 0-.56-.084-1.498-.826-2.24-.546-.546-1.4-.938-2.408-.938-.239 0-.449.014-.63.056l.336-1.47h3.108v-1.568z" fill="#949494"/><path stroke="#333" d="m30.401 5.298-22.999 31"/></svg>