<svg width="143" height="138" fill="none" xmlns="http://www.w3.org/2000/svg"><g opacity=".05" fill="#949494"><path d="M85.034 80.98c-.086-8.986-4.68-17.202-12.291-21.978-7.61-4.776-17.007-5.34-25.135-1.51l-19.588 9.23a16.497 16.497 0 0 0-7.561 7.18 16.502 16.502 0 0 0-1.792 10.276 16.504 16.504 0 0 0 4.69 9.317 16.495 16.495 0 0 0 9.322 4.684l.239.034a32.65 32.65 0 0 1 21.97 13.903 16.53 16.53 0 0 0 4.895 4.737 16.747 16.747 0 0 0 3.373 1.619 16.5 16.5 0 0 0 10.43.173 16.495 16.495 0 0 0 8.475-6.08 16.5 16.5 0 0 0 3.18-9.934l-.207-21.651zM40.388 52.934c3.654.717 7.38-.252 10.492-2.729 2.96-2.356 5.016-5.825 5.787-9.767.768-3.942.17-7.928-1.685-11.227-1.95-3.465-5.035-5.766-8.686-6.478-7.341-1.438-14.641 4.168-16.275 12.499-1.293 6.635 1.395 13.023 6.252 16.072a12.067 12.067 0 0 0 4.115 1.63zM67.184 52.89c7.394 4.639 17.709 1.56 22.995-6.862 5.287-8.425 3.574-19.054-3.82-23.694-7.392-4.64-17.707-1.56-22.995 6.866-5.286 8.423-3.572 19.05 3.82 23.69zM87.985 71.174c.9 1.092 1.948 2 3.103 2.725 5.392 3.384 13.109 2.757 18.899-2.016 3.333-2.747 5.561-6.465 6.272-10.47.746-4.19-.238-8.19-2.77-11.261-2.532-3.072-6.271-4.8-10.528-4.868-4.066-.065-8.14 1.413-11.473 4.161-7.03 5.796-8.601 15.544-3.503 21.73zM117.34 87.111l-.001-.003c-2.735-6.966-11.384-10.119-19.284-7.027-7.896 3.097-12.103 11.283-9.378 18.247.994 2.541 2.775 4.575 5.02 5.984 3.913 2.456 9.238 3.013 14.265 1.048 7.896-3.097 12.103-11.283 9.378-18.249z"/></g></svg>