<svg width="28" height="29" fill="none" xmlns="http://www.w3.org/2000/svg"><path d="M11.484 17.682a5.545 5.545 0 0 0 4.159-3.354 5.544 5.544 0 0 0-.58-5.311l-2.628-3.769a3.5 3.5 0 0 0-1.772-1.326 3.502 3.502 0 0 0-2.213-.008 3.502 3.502 0 0 0-1.782 1.313 3.5 3.5 0 0 0-.647 2.117l.001.05a6.928 6.928 0 0 1-2.125 5.092 3.505 3.505 0 0 0-1.035 1.956 3.5 3.5 0 0 0 .335 2.188 3.5 3.5 0 0 0 1.574 1.556c.683.339 1.44.446 2.191.311l4.522-.815zM15.76 7.344c-.02.79.315 1.535.944 2.098.599.535 1.397.841 2.25.862.851.02 1.664-.247 2.288-.752.655-.531 1.027-1.259 1.046-2.048.039-1.587-1.394-2.914-3.195-2.96-1.434-.033-2.674.757-3.139 1.881a2.562 2.562 0 0 0-.194.92zM16.724 12.948c-.707 1.712.304 3.76 2.254 4.565 1.951.806 4.113.069 4.82-1.643.708-1.711-.304-3.76-2.255-4.565-1.95-.806-4.112-.069-4.82 1.643zM13.64 17.95a2.74 2.74 0 0 0-.46.747c-.515 1.248-.11 2.84 1.096 3.881.693.6 1.55.933 2.413.939.903.007 1.705-.342 2.257-.98.552-.64.78-1.484.643-2.376-.131-.853-.585-1.653-1.279-2.252-1.463-1.264-3.558-1.245-4.67.041zM11.352 24.659c1.36-.821 1.712-2.743.784-4.285-.93-1.541-2.792-2.13-4.151-1.311a2.626 2.626 0 0 0-1.073 1.263c-.374.906-.301 2.04.289 3.021.93 1.541 2.791 2.13 4.151 1.312z" fill="#FFBD54"/></svg>