<svg width="935" height="330" fill="none" xmlns="http://www.w3.org/2000/svg"><g opacity=".25" fill="#000"><g opacity=".2"><path d="M112.071 30.175a8.174 8.174 0 0 0 6.274-4.762 8.172 8.172 0 0 0-.624-7.852l-3.71-5.667a5.163 5.163 0 0 0-2.554-2.03 5.159 5.159 0 0 0-3.26-.11 5.163 5.163 0 0 0-2.683 1.859 5.165 5.165 0 0 0-1.046 3.091v.075a10.21 10.21 0 0 1-3.352 7.41 5.17 5.17 0 0 0-1.61 2.838 5.161 5.161 0 0 0 .4 3.238 5.16 5.16 0 0 0 2.252 2.362 5.16 5.16 0 0 0 3.215.553l6.698-1.005zM118.819 15.126c-.063 1.163.399 2.275 1.301 3.132.859.815 2.023 1.3 3.277 1.368 1.255.067 2.464-.292 3.405-1.01.989-.754 1.567-1.81 1.629-2.972.127-2.337-1.927-4.354-4.579-4.499-2.111-.112-3.974.998-4.707 2.636a3.77 3.77 0 0 0-.326 1.345zM119.997 23.425c-1.116 2.492.286 5.554 3.125 6.825 2.84 1.272 6.058.28 7.174-2.213 1.116-2.491-.287-5.553-3.126-6.825-2.839-1.271-6.057-.279-7.173 2.213zM115.237 30.663c-.299.327-.535.69-.709 1.08-.814 1.817-.285 4.18 1.445 5.767.996.913 2.245 1.441 3.516 1.488 1.331.049 2.527-.43 3.368-1.348.842-.918 1.215-2.151 1.051-3.473-.157-1.262-.792-2.46-1.788-3.373-2.101-1.926-5.189-1.989-6.883-.14zM111.575 40.45l.001-.001c2.039-1.15 2.64-3.967 1.339-6.28-1.302-2.311-4.021-3.258-6.06-2.111a3.87 3.87 0 0 0-1.635 1.815c-.591 1.319-.532 2.992.295 4.464 1.302 2.311 4.021 3.259 6.06 2.112z"/></g><g opacity=".3"><path d="M243.071 100.175a8.174 8.174 0 0 0 6.274-4.763 8.172 8.172 0 0 0-.624-7.851l-3.71-5.667a5.164 5.164 0 0 0-2.554-2.03 5.16 5.16 0 0 0-3.26-.11 5.163 5.163 0 0 0-2.683 1.859 5.165 5.165 0 0 0-1.046 3.091v.075a10.21 10.21 0 0 1-3.352 7.41 5.176 5.176 0 0 0-1.61 2.838 5.165 5.165 0 0 0 .4 3.238 5.162 5.162 0 0 0 2.252 2.362c.992.528 2.104.72 3.215.553l6.698-1.005zM249.819 85.126c-.063 1.163.399 2.275 1.301 3.132.859.815 2.023 1.3 3.277 1.368 1.255.067 2.464-.292 3.405-1.01.989-.754 1.567-1.81 1.629-2.972.127-2.337-1.927-4.354-4.579-4.499-2.111-.112-3.974.999-4.707 2.636a3.77 3.77 0 0 0-.326 1.345zM250.997 93.425c-1.116 2.492.286 5.554 3.125 6.825 2.84 1.272 6.058.279 7.174-2.213 1.116-2.491-.287-5.553-3.126-6.825-2.839-1.271-6.057-.279-7.173 2.213zM246.237 100.663c-.299.327-.535.69-.709 1.08-.814 1.817-.285 4.18 1.445 5.767.996.913 2.245 1.441 3.516 1.488 1.331.049 2.527-.43 3.368-1.348.842-.918 1.215-2.151 1.051-3.473-.157-1.262-.792-2.46-1.788-3.373-2.101-1.926-5.189-1.989-6.883-.141zM242.575 110.449h.001c2.039-1.15 2.64-3.967 1.339-6.279-1.302-2.312-4.021-3.259-6.06-2.112a3.868 3.868 0 0 0-1.635 1.815c-.591 1.318-.532 2.992.295 4.464 1.302 2.311 4.021 3.259 6.06 2.112z"/></g><g opacity=".6"><path d="M696.338 71.877a8.175 8.175 0 0 0 .821-7.834 8.173 8.173 0 0 0-6.152-4.919l-6.671-1.173a5.161 5.161 0 0 0-3.228.472 5.16 5.16 0 0 0-2.311 2.303 5.168 5.168 0 0 0-.481 3.228 5.165 5.165 0 0 0 1.538 2.878l.055.052a10.213 10.213 0 0 1 3.108 7.515 5.185 5.185 0 0 0 3.603 5.04 5.157 5.157 0 0 0 3.262-.025 5.157 5.157 0 0 0 2.604-1.966l3.852-5.571zM689.984 56.657c.804.843 1.931 1.267 3.173 1.195 1.182-.069 2.333-.584 3.241-1.453.907-.869 1.473-1.996 1.594-3.174.126-1.237-.248-2.381-1.052-3.222-1.617-1.69-4.494-1.575-6.414.26-1.527 1.463-1.992 3.58-1.3 5.236.176.422.429.815.758 1.158zM696.841 61.478c1.053 2.52 4.244 3.592 7.114 2.393 2.871-1.2 4.35-4.226 3.297-6.745-1.053-2.519-4.245-3.592-7.116-2.392-2.87 1.2-4.348 4.225-3.295 6.744zM698.86 69.903c.034.441.137.862.302 1.256.768 1.837 2.854 3.068 5.194 2.892 1.347-.1 2.587-.65 3.491-1.544.947-.938 1.416-2.137 1.323-3.379-.093-1.242-.737-2.357-1.813-3.142-1.028-.75-2.336-1.107-3.683-1.006-2.842.214-5.002 2.422-4.814 4.923zM703.489 79.27l.001-.001c.557-2.274-1.085-4.64-3.662-5.274-2.577-.632-5.128.702-5.687 2.973a3.864 3.864 0 0 0 .204 2.435c.557 1.333 1.817 2.436 3.457 2.84 2.576.632 5.128-.701 5.687-2.973z"/></g><g opacity=".2"><path d="M19.266 29.097a9.017 9.017 0 0 0 7.446-4.48 9.016 9.016 0 0 0 .245-8.685l-3.398-6.655A5.693 5.693 0 0 0 21 6.748a5.694 5.694 0 0 0-3.563-.505 5.694 5.694 0 0 0-3.161 1.72 5.692 5.692 0 0 0-1.514 3.266l-.009.082a11.266 11.266 0 0 1-4.554 7.73 5.699 5.699 0 0 0-2.102 2.92 5.693 5.693 0 0 0 .055 3.6 5.691 5.691 0 0 0 2.19 2.856 5.693 5.693 0 0 0 3.46.988l7.465-.308zM28.45 13.392c-.207 1.268.168 2.543 1.056 3.588.845.996 2.064 1.667 3.432 1.89 1.368.221 2.736-.029 3.854-.705 1.173-.71 1.933-1.8 2.139-3.066.415-2.548-1.598-5.004-4.49-5.476-2.302-.374-4.476.623-5.474 2.332-.255.436-.433.919-.517 1.437zM28.759 22.633c-1.52 2.6-.345 6.125 2.618 7.855 2.964 1.732 6.61 1.024 8.13-1.576 1.52-2.6.344-6.125-2.62-7.856-2.963-1.73-6.609-1.023-8.128 1.577zM22.68 30.007a4.452 4.452 0 0 0-.905 1.1c-1.108 1.897-.808 4.552.902 6.496.984 1.12 2.29 1.847 3.68 2.049 1.453.21 2.822-.172 3.853-1.079 1.032-.907 1.587-2.215 1.564-3.684-.023-1.403-.577-2.793-1.561-3.912-2.076-2.36-5.455-2.796-7.533-.97zM17.506 40.306c2.373-1.02 3.366-4.038 2.213-6.728-1.155-2.69-4.024-4.05-6.396-3.035a4.27 4.27 0 0 0-2.009 1.797c-.804 1.377-.938 3.22-.205 4.931 1.155 2.69 4.024 4.051 6.397 3.035z"/></g><g opacity=".4"><path d="M395.778 123.314a8.02 8.02 0 0 0 .888-7.679 8.02 8.02 0 0 0-5.987-4.89l-6.534-1.221a5.07 5.07 0 0 0-3.172.43 5.071 5.071 0 0 0-2.292 2.236 5.064 5.064 0 0 0-.505 3.162 5.063 5.063 0 0 0 1.479 2.841l.053.051a10.025 10.025 0 0 1 2.973 7.407 5.063 5.063 0 0 0 .917 3.068 5.064 5.064 0 0 0 2.565 1.916 5.055 5.055 0 0 0 3.202.009 5.063 5.063 0 0 0 2.576-1.902l3.837-5.428zM389.701 108.313c.781.835 1.883 1.263 3.102 1.205 1.16-.054 2.295-.549 3.195-1.392.899-.843 1.466-1.943 1.597-3.098.137-1.212-.218-2.339-.999-3.172-1.569-1.677-4.393-1.593-6.297.188-1.513 1.42-1.992 3.493-1.33 5.124.169.417.413.805.732 1.145zM396.38 113.115c1.007 2.483 4.128 3.57 6.957 2.422 2.83-1.148 4.312-4.102 3.305-6.585-1.007-2.483-4.129-3.569-6.958-2.421-2.829 1.148-4.311 4.101-3.304 6.584zM398.274 121.403l.001.001c.028.433.125.847.283 1.235.734 1.811 2.768 3.041 5.067 2.893 1.323-.085 2.545-.611 3.442-1.48.938-.91 1.412-2.082 1.333-3.302-.079-1.219-.699-2.321-1.747-3.102-1.001-.747-2.281-1.111-3.604-1.025-2.791.18-4.933 2.325-4.775 4.78zM402.72 130.644v-.001c.571-2.226-1.016-4.564-3.538-5.213-2.523-.648-5.04.635-5.612 2.858a3.797 3.797 0 0 0 .175 2.391c.533 1.315 1.758 2.41 3.363 2.823 2.522.648 5.039-.635 5.612-2.858z"/></g><path d="M909.067 311.716a8.021 8.021 0 0 0 7.511 1.827 8.016 8.016 0 0 0 5.591-5.338l2.017-6.333a5.069 5.069 0 0 0-.036-3.202 5.058 5.058 0 0 0-1.936-2.549 5.061 5.061 0 0 0-3.076-.892 5.068 5.068 0 0 0-3.001 1.118l-.057.047a10.025 10.025 0 0 1-7.718 2.036 5.076 5.076 0 0 0-3.157.532 5.067 5.067 0 0 0-2.218 2.31 5.066 5.066 0 0 0-.403 3.177 5.062 5.062 0 0 0 1.57 2.79l4.913 4.477zM924.703 307.534c-.925.672-1.485 1.713-1.578 2.93-.089 1.158.262 2.345.988 3.342.725.997 1.747 1.695 2.877 1.967 1.186.285 2.349.072 3.272-.6 1.857-1.351 2.121-4.164.589-6.272-1.223-1.677-3.221-2.408-4.922-1.952-.434.117-.849.31-1.226.585zM919.115 313.57c-2.589.694-4.052 3.657-3.261 6.606.79 2.949 3.539 4.785 6.127 4.091 2.588-.693 4.05-3.657 3.26-6.606s-3.538-4.784-6.126-4.091zM910.656 314.429a3.953 3.953 0 0 0-1.261.128c-1.888.506-3.359 2.373-3.495 4.672-.079 1.324.292 2.602 1.044 3.599.787 1.043 1.892 1.657 3.112 1.729 1.22.073 2.39-.407 3.294-1.351.864-.901 1.383-2.126 1.461-3.449.166-2.793-1.699-5.183-4.155-5.328zM900.938 317.701l.001.001c2.138.84 4.655-.447 5.61-2.869.953-2.423-.01-5.08-2.145-5.922a3.8 3.8 0 0 0-2.395-.121c-1.37.367-2.608 1.448-3.216 2.989-.953 2.423.009 5.08 2.145 5.922z"/><g opacity=".5"><path d="M504.682 127.438a9.019 9.019 0 0 0-3.014-8.15 9.017 9.017 0 0 0-8.488-1.859l-7.17 2.098a5.69 5.69 0 0 0-2.962 2.044 5.697 5.697 0 0 0-1.161 3.407 5.694 5.694 0 0 0 1.101 3.426 5.692 5.692 0 0 0 2.927 2.096l.079.024a11.268 11.268 0 0 1 6.746 5.915 5.696 5.696 0 0 0 2.478 2.609 5.695 5.695 0 0 0 3.547.617 5.694 5.694 0 0 0 3.214-1.619 5.701 5.701 0 0 0 1.616-3.216l1.087-7.392zM490.963 115.489c1.208.44 2.53.309 3.723-.369 1.135-.645 2.021-1.717 2.495-3.02.473-1.302.482-2.693.026-3.917-.479-1.286-1.408-2.235-2.614-2.673-2.426-.883-5.214.637-6.217 3.39-.795 2.193-.221 4.514 1.272 5.813.381.332.822.597 1.315.776zM500.1 116.907c2.272 1.977 5.953 1.48 8.206-1.109 2.253-2.589 2.238-6.304-.034-8.281-2.272-1.977-5.953-1.479-8.207 1.11-2.252 2.589-2.236 6.303.035 8.28zM506.213 124.253c.248.42.557.786.912 1.095 1.657 1.442 4.321 1.641 6.55.324 1.283-.758 2.242-1.907 2.698-3.233.479-1.389.357-2.805-.342-3.988-.699-1.182-1.881-1.971-3.328-2.222-1.383-.24-2.851.046-4.134.804-2.706 1.6-3.763 4.839-2.356 7.22zM515.367 131.256v-.001c-.56-2.521-3.34-4.058-6.198-3.427-2.858.633-4.73 3.199-4.173 5.719a4.27 4.27 0 0 0 1.391 2.308c1.203 1.046 2.988 1.521 4.807 1.121 2.857-.634 4.729-3.199 4.173-5.72z"/></g><g opacity=".3"><path d="M163.612 121.47a9.017 9.017 0 0 0 4.48-7.445 9.016 9.016 0 0 0-3.851-7.789l-6.118-4.288a5.687 5.687 0 0 0-3.446-1.036 5.692 5.692 0 0 0-3.385 1.222 5.694 5.694 0 0 0-1.988 3.001 5.688 5.688 0 0 0 .192 3.594l.031.077a11.272 11.272 0 0 1-.404 8.962 5.685 5.685 0 0 0-.489 3.566 5.688 5.688 0 0 0 1.734 3.154 5.691 5.691 0 0 0 3.272 1.499 5.697 5.697 0 0 0 3.521-.748l6.451-3.769zM164.371 103.293c.411 1.217 1.339 2.168 2.614 2.676 1.213.484 2.604.506 3.917.062 1.312-.445 2.404-1.307 3.075-2.427.704-1.177.865-2.496.453-3.712-.826-2.445-3.755-3.672-6.53-2.736-2.21.749-3.663 2.648-3.745 4.625a4.166 4.166 0 0 0 .216 1.512zM168.972 111.313c-.124 3.009 2.564 5.573 5.992 5.715 3.43.141 6.321-2.192 6.445-5.201.124-3.009-2.564-5.572-5.994-5.714-3.428-.142-6.319 2.191-6.443 5.2zM167.055 120.675v.001a4.426 4.426 0 0 0-.285 1.396c-.091 2.194 1.418 4.399 3.839 5.316 1.394.529 2.889.56 4.211.087 1.383-.494 2.413-1.473 2.899-2.758.487-1.284.365-2.7-.344-3.987-.676-1.23-1.817-2.197-3.21-2.725-2.94-1.114-6.13.084-7.11 2.67zM167.306 132.198h.001c1.618-2.012 1.082-5.143-1.196-6.981-2.28-1.835-5.453-1.694-7.073.315a4.27 4.27 0 0 0-.933 2.528c-.066 1.593.679 3.283 2.128 4.453 2.28 1.835 5.453 1.694 7.073-.315z"/></g><g opacity=".6"><path d="M578.701 44.183a7.987 7.987 0 0 0 2.58-7.251 7.984 7.984 0 0 0-4.713-6.085l-6.066-2.647a5.042 5.042 0 0 0-3.174-.294 5.044 5.044 0 0 0-2.724 1.657 5.043 5.043 0 0 0-1.198 2.954 5.041 5.041 0 0 0 .799 3.087l.04.062a9.983 9.983 0 0 1 1.226 7.852 5.045 5.045 0 0 0 .202 3.181 5.047 5.047 0 0 0 2.06 2.434 5.043 5.043 0 0 0 3.105.725 5.045 5.045 0 0 0 2.925-1.268l4.938-4.407zM576.163 28.269c.571.984 1.544 1.646 2.74 1.863 1.138.207 2.35-.019 3.412-.635 1.061-.617 1.857-1.557 2.242-2.648.405-1.146.313-2.319-.258-3.302-1.148-1.978-3.906-2.528-6.152-1.227-1.786 1.039-2.714 2.943-2.437 4.674.07.442.22.873.453 1.275zM581.568 34.423c.421 2.634 3.206 4.387 6.207 3.907 3.003-.48 5.102-3.014 4.681-5.648-.421-2.635-3.206-4.387-6.209-3.907-3.001.48-5.1 3.013-4.679 5.648zM581.55 42.888a3.96 3.96 0 0 0-.002 1.262c.308 1.922 2.005 3.57 4.269 3.941 1.303.214 2.606-.023 3.67-.665 1.115-.672 1.836-1.704 2.033-2.904.197-1.201-.159-2.41-1-3.402-.804-.948-1.964-1.588-3.267-1.8-2.748-.45-5.307 1.15-5.703 3.568zM583.795 52.848c1.052-2.032.036-4.656-2.266-5.85s-5.032-.513-6.085 1.516a3.784 3.784 0 0 0-.365 2.36c.223 1.393 1.166 2.73 2.63 3.491 2.302 1.192 5.032.512 6.086-1.517z"/></g><g opacity=".8"><path d="M816.918 147.433a8.051 8.051 0 0 0 7.501 1.978 8.05 8.05 0 0 0 5.711-5.248l2.145-6.316a5.079 5.079 0 0 0 .026-3.212 5.088 5.088 0 0 0-1.894-2.596 5.088 5.088 0 0 0-3.069-.953 5.081 5.081 0 0 0-3.032 1.064l-.059.046a10.06 10.06 0 0 1-7.781 1.895 5.069 5.069 0 0 0-3.178.473 5.076 5.076 0 0 0-2.269 2.275 5.085 5.085 0 0 0-.466 3.179 5.084 5.084 0 0 0 1.522 2.83l4.843 4.585zM832.685 143.538c-.941.656-1.523 1.69-1.64 2.909-.111 1.16.218 2.358.927 3.372.709 1.014 1.721 1.734 2.849 2.028 1.185.309 2.355.118 3.294-.539 1.889-1.32 2.208-4.137.711-6.281-1.194-1.706-3.185-2.477-4.9-2.052a3.705 3.705 0 0 0-1.241.563zM826.963 149.487c-2.61.646-4.135 3.59-3.399 6.564.737 2.974 3.459 4.868 6.069 4.222 2.61-.646 4.134-3.591 3.397-6.565-.736-2.974-3.458-4.867-6.067-4.221zM818.46 150.185a3.97 3.97 0 0 0-1.268.105c-1.903.471-3.415 2.316-3.596 4.62-.104 1.327.243 2.616.979 3.63.769 1.062 1.866 1.699 3.089 1.795 1.222.096 2.405-.363 3.331-1.292.884-.887 1.428-2.107 1.532-3.433.219-2.798-1.605-5.232-4.067-5.425zM808.648 153.282l.001.001c2.129.884 4.678-.359 5.683-2.771 1.002-2.413.088-5.097-2.039-5.982a3.808 3.808 0 0 0-2.4-.168c-1.381.342-2.644 1.403-3.284 2.938-1.002 2.412-.088 5.096 2.039 5.982z"/></g><g opacity=".5"><path d="M605.879 139.847a8.583 8.583 0 0 0-1.312-8.166 8.58 8.58 0 0 0-7.584-3.302l-7.084.637a5.412 5.412 0 0 0-3.143 1.362 5.42 5.42 0 0 0-1.712 2.967 5.43 5.43 0 0 0 .396 3.404 5.419 5.419 0 0 0 2.347 2.497l.07.037a10.722 10.722 0 0 1 5.208 6.768 5.44 5.44 0 0 0 1.834 2.894 5.424 5.424 0 0 0 3.198 1.23 5.412 5.412 0 0 0 3.301-.919 5.424 5.424 0 0 0 2.102-2.706l2.379-6.703zM595.271 126.158c1.046.633 2.305.755 3.544.342 1.18-.393 2.205-1.231 2.888-2.36.682-1.129.947-2.427.747-3.654-.211-1.288-.903-2.347-1.949-2.978-2.102-1.272-4.987-.367-6.431 2.019-1.148 1.901-1.039 4.175.115 5.664.295.38.658.709 1.086.967zM603.542 129.168c1.757 2.265 5.287 2.48 7.868.478 2.582-2.003 3.253-5.475 1.495-7.741-1.757-2.265-5.286-2.479-7.868-.476-2.581 2.002-3.252 5.473-1.495 7.739zM607.896 137.155v.001c.154.438.375.836.65 1.19 1.281 1.653 3.732 2.33 6.057 1.511 1.338-.471 2.445-1.367 3.116-2.522.703-1.209.851-2.554.417-3.787-.435-1.233-1.394-2.188-2.699-2.69-1.247-.478-2.671-.482-4.009-.01-2.822.994-4.407 3.824-3.532 6.307zM615.153 145.384v-.001c-.058-2.457-2.37-4.406-5.156-4.344-2.785.065-5.007 2.116-4.952 4.571.02.896.34 1.725.874 2.413.93 1.199 2.509 1.972 4.282 1.933 2.785-.065 5.007-2.115 4.952-4.572z"/></g><g opacity=".7"><path d="M786.568 81.265a7.788 7.788 0 0 0 4.593-5.935 7.788 7.788 0 0 0-2.519-7.069l-4.816-4.294a4.916 4.916 0 0 0-2.852-1.236 4.917 4.917 0 0 0-3.026.707 4.915 4.915 0 0 0-2.008 2.374 4.918 4.918 0 0 0-.197 3.103l.019.069a9.732 9.732 0 0 1-1.249 7.647 4.917 4.917 0 0 0-.779 3.009 4.918 4.918 0 0 0 1.17 2.88 4.914 4.914 0 0 0 2.656 1.615 4.916 4.916 0 0 0 3.095-.287l5.913-2.583zM789.05 65.75c.23 1.085.93 1.994 1.972 2.558.992.537 2.183.696 3.354.448 1.17-.25 2.194-.879 2.882-1.772.723-.939.994-2.054.763-3.138-.462-2.18-2.851-3.528-5.326-3.004-1.971.42-3.409 1.901-3.678 3.59-.069.43-.061.874.033 1.318zM792.189 73.093c-.41 2.568 1.638 5.038 4.564 5.505 2.927.467 5.642-1.243 6.052-3.812.41-2.569-1.639-5.038-4.566-5.505-2.926-.467-5.641 1.243-6.05 3.812zM789.601 80.93a3.85 3.85 0 0 0-.385 1.169c-.299 1.873.774 3.916 2.758 4.947 1.142.594 2.422.77 3.603.499 1.236-.285 2.218-1.021 2.765-2.074.547-1.053.584-2.28.106-3.455-.456-1.123-1.337-2.067-2.479-2.66-2.41-1.252-5.266-.546-6.368 1.574zM788.656 90.84l.001-.001c1.591-1.563 1.446-4.303-.323-6.108-1.771-1.804-4.506-2.003-6.098-.443a3.683 3.683 0 0 0-1.055 2.075c-.217 1.36.251 2.885 1.377 4.034 1.77 1.804 4.506 2.002 6.098.442z"/></g><g opacity=".9"><path d="M890.254 195.462a7.527 7.527 0 0 0 7.203.849 7.526 7.526 0 0 0 4.6-5.607l1.159-6.127a4.753 4.753 0 0 0-.397-2.978 4.748 4.748 0 0 0-2.093-2.154 4.756 4.756 0 0 0-2.966-.481 4.75 4.75 0 0 0-2.668 1.382l-.048.05a9.402 9.402 0 0 1-6.955 2.773 4.756 4.756 0 0 0-2.88.855 4.742 4.742 0 0 0-1.803 2.403 4.75 4.75 0 0 0-.015 3.004c.32.984.935 1.821 1.779 2.42l5.084 3.611zM904.34 189.791c-.784.731-1.188 1.764-1.136 2.908.049 1.089.51 2.155 1.299 3.001.789.845 1.82 1.379 2.903 1.504 1.138.131 2.196-.199 2.979-.93 1.576-1.469 1.503-4.119-.164-5.908-1.329-1.423-3.273-1.876-4.805-1.259a3.49 3.49 0 0 0-1.076.684zM899.822 196.048c-2.332.94-3.357 3.866-2.287 6.522 1.072 2.657 3.84 4.054 6.171 3.114 2.332-.94 3.357-3.866 2.286-6.523-1.071-2.656-3.839-4.053-6.17-3.113zM892.042 197.808a3.722 3.722 0 0 0-1.16.263c-1.7.686-2.858 2.591-2.724 4.748.077 1.242.568 2.39 1.381 3.232.852.883 1.951 1.329 3.095 1.258 1.144-.072 2.179-.651 2.915-1.633.702-.937 1.046-2.137.968-3.378-.163-2.619-2.171-4.633-4.475-4.49zM883.364 201.96h.001c2.087.54 4.284-.944 4.898-3.309.612-2.365-.586-4.73-2.67-5.271a3.565 3.565 0 0 0-2.244.159c-1.234.498-2.264 1.645-2.656 3.15-.612 2.364.586 4.729 2.671 5.271z"/></g><path d="M827.254 282.462a7.527 7.527 0 0 0 7.203.849 7.526 7.526 0 0 0 4.6-5.607l1.159-6.127a4.753 4.753 0 0 0-.397-2.978 4.748 4.748 0 0 0-2.093-2.154 4.756 4.756 0 0 0-2.966-.481 4.75 4.75 0 0 0-2.668 1.382l-.048.05a9.402 9.402 0 0 1-6.955 2.773 4.756 4.756 0 0 0-2.88.855 4.742 4.742 0 0 0-1.803 2.403 4.75 4.75 0 0 0-.015 3.004c.32.984.935 1.821 1.779 2.42l5.084 3.611zM841.34 276.791c-.784.731-1.188 1.764-1.136 2.908.049 1.089.51 2.155 1.299 3.001.789.845 1.82 1.379 2.903 1.504 1.138.131 2.196-.199 2.979-.93 1.576-1.469 1.503-4.119-.164-5.908-1.329-1.423-3.273-1.876-4.805-1.259a3.49 3.49 0 0 0-1.076.684zM836.822 283.048c-2.332.94-3.357 3.866-2.287 6.522 1.072 2.657 3.84 4.054 6.171 3.114 2.332-.94 3.357-3.866 2.286-6.523-1.071-2.657-3.839-4.053-6.17-3.113zM829.042 284.808a3.722 3.722 0 0 0-1.16.263c-1.7.686-2.858 2.591-2.724 4.748.077 1.242.568 2.39 1.381 3.232.852.883 1.951 1.329 3.095 1.258 1.144-.072 2.179-.651 2.915-1.633.702-.937 1.046-2.137.968-3.378-.163-2.619-2.171-4.633-4.475-4.49zM820.364 288.96h.001c2.087.54 4.284-.944 4.898-3.309.612-2.365-.586-4.73-2.67-5.271a3.565 3.565 0 0 0-2.244.159c-1.234.498-2.264 1.645-2.656 3.15-.612 2.364.586 4.729 2.671 5.271z"/></g><path d="M335.213 163.191a9.91 9.91 0 0 1 7.34 6.11 9.909 9.909 0 0 1-1.184 9.476l.405.293-.405-.293-5.043 6.996v.001a6.08 6.08 0 0 1-3.111 2.252 6.071 6.071 0 0 1-3.84-.045 6.072 6.072 0 0 1-3.056-2.327 6.067 6.067 0 0 1-1.066-3.69 13.504 13.504 0 0 0-3.914-10.017l-.003-.004-.068-.066v-.001a6.072 6.072 0 0 1-1.743-3.422 6.082 6.082 0 0 1 .641-3.787 6.074 6.074 0 0 1 2.774-2.657l-.215-.451.215.451a6.074 6.074 0 0 1 3.81-.48l8.463 1.661zM334.436 159.196a4.339 4.339 0 0 1-.839-1.34c-.754-1.91-.186-4.38 1.661-6.081 2.332-2.142 5.675-2.147 7.465-.199v.001c.897.974 1.306 2.291 1.13 3.729-.168 1.371-.856 2.684-1.951 3.692-1.096 1.008-2.463 1.585-3.843 1.637-1.447.055-2.726-.463-3.623-1.439zM351.491 168.604c-3.486 1.377-7.195-.022-8.349-2.944-1.154-2.921.598-6.477 4.084-7.854 3.487-1.377 7.196.022 8.35 2.943 1.154 2.921-.598 6.478-4.085 7.855zM345.533 176.564l.002.028c.028.509.138.995.318 1.451.843 2.132 3.249 3.653 6.047 3.498h.001c1.607-.089 3.084-.712 4.166-1.742 1.131-1.076 1.693-2.452 1.614-3.878m-12.148.643 12.148-.643m-12.148.643c-.139-2.843 2.384-5.402 5.783-5.59 1.607-.089 3.144.367 4.333 1.271 1.242.945 1.953 2.251 2.032 3.676m-12.148.643 12.648-.67-.5.027m-1.73-4.073-.003.003.003-.003zM339.332 185.625a4.427 4.427 0 0 0 .181 2.792c.614 1.556 2.061 2.887 3.993 3.404 3.057.814 6.021-.732 6.704-3.288l.01-.036c.655-2.55-1.142-5.346-4.184-6.159l-6.704 3.287zm0 0c.683-2.555 3.647-4.102 6.704-3.287l-6.704 3.287z" fill="#FFBD54" stroke="#000"/><path d="m273.819 224.404.47-.472 11.387 11.385-.277.275-3.02 3.015c-1.934 1.939-6.052.959-9.198-2.183-3.144-3.148-4.123-7.264-2.188-9.198l2.821-2.822h.005z" fill="#5A6E7F"/><path d="m277.076 221.194 11.386 11.378-2.786 2.745-11.386-11.385.325-.325.009.005 2.452-2.418z" fill="#FFBD54"/><path d="M337.636 127C362.138 127 382 146.867 382 171.371c0 24.503-19.862 44.366-44.364 44.366a44.14 44.14 0 0 1-24.553-7.418l-24.621 24.253-11.386-11.378 24.46-24.092c-5.187-7.26-8.271-16.129-8.271-25.731 0-24.504 19.862-44.371 44.371-44.371zm-.607 75.567c17.227 0 31.197-13.965 31.197-31.196 0-17.232-13.97-31.197-31.197-31.197-17.231 0-31.198 13.965-31.198 31.197 0 17.231 13.967 31.196 31.198 31.196z" fill="#333"/></svg>